<svg width="200" height="200" viewBox="105 0 140 158.997" class="looka-1j8o68f" xmlns="http://www.w3.org/2000/svg"><g xmlns="http://www.w3.org/2000/svg" fill-rule="evenodd" clip-rule="evenodd" fill="#111"><path d="M131.93 125.127s28.118 11.502 49.416-7.892c12.334-11.184 7.932-23.677.317-27.366 0 0 17.728-7.06 21.139 15.785 3.093 20.742-33.077 33.75-27.009 53.343 0 0-16.974-3.332-15.11-18.045-.04.04-19.632 1.586-28.754-15.825"/><path d="M193.918 139.92s23.796-18.838 17.371-46.917c-3.688-16.182-16.736-18.482-23.677-13.644 0 0 2.538-18.917 24.113-10.668 19.632 7.496 13.207 45.371 33.275 49.694 0 0-11.263 13.167-23.122 4.323 0 0-8.249 17.847-27.96 17.212"/><path d="M237.266 93.161s-4.759-29.983-32.362-38.113c-15.944-4.72-24.351 5.513-23.519 13.92 0 0-15.23-11.54 2.539-26.294 16.102-13.405 46.005 10.748 59.609-4.6 0 0 5.909 16.26-7.575 22.288 0 .04 11.501 15.944 1.308 32.8"/><path d="M217.793 32.481s-28.476-10.55-49.099 9.48c-11.937 11.58-7.178 23.954.555 27.364 0 0-17.49 7.615-21.614-15.11C143.827 33.552 179.56 19.393 172.858 0c0 0 17.094 2.816 15.706 17.53-.04 0 19.513-2.182 29.23 14.951"/><path d="M155.329 19.671s-23.162 19.632-15.825 47.473c4.244 16.063 17.371 17.966 24.114 12.89 0 0-1.944 18.997-23.796 11.461-19.83-6.821-14.675-44.934-34.822-48.583 0 0 10.788-13.485 22.963-5.077-.04 0 7.655-18.085 27.366-18.164"/><path d="M113.527 67.858s5.75 29.824 33.592 37.082c16.102 4.165 24.153-6.345 23.082-14.714 0 0 15.587 10.986-1.665 26.374-15.706 13.881-46.363-9.32-59.49 6.505 0 0-6.465-16.063 6.821-22.488.04-.04-11.938-15.586-2.34-32.759"/></g></svg>