<svg width="194.4" height="126.589" viewBox="0 0 349.998 227.912" class="looka-1j8o68f"><g xmlns="http://www.w3.org/2000/svg" fill-rule="evenodd" clip-rule="evenodd" fill="#111"><path d="M131.93 125.127s28.118 11.502 49.416-7.892c12.334-11.184 7.932-23.677.317-27.366 0 0 17.728-7.06 21.139 15.785 3.093 20.742-33.077 33.75-27.009 53.343 0 0-16.974-3.332-15.11-18.045-.04.04-19.632 1.586-28.754-15.825"/><path d="M193.918 139.92s23.796-18.838 17.371-46.917c-3.688-16.182-16.736-18.482-23.677-13.644 0 0 2.538-18.917 24.113-10.668 19.632 7.496 13.207 45.371 33.275 49.694 0 0-11.263 13.167-23.122 4.323 0 0-8.249 17.847-27.96 17.212"/><path d="M237.266 93.161s-4.759-29.983-32.362-38.113c-15.944-4.72-24.351 5.513-23.519 13.92 0 0-15.23-11.54 2.539-26.294 16.102-13.405 46.005 10.748 59.609-4.6 0 0 5.909 16.26-7.575 22.288 0 .04 11.501 15.944 1.308 32.8"/><path d="M217.793 32.481s-28.476-10.55-49.099 9.48c-11.937 11.58-7.178 23.954.555 27.364 0 0-17.49 7.615-21.614-15.11C143.827 33.552 179.56 19.393 172.858 0c0 0 17.094 2.816 15.706 17.53-.04 0 19.513-2.182 29.23 14.951"/><path d="M155.329 19.671s-23.162 19.632-15.825 47.473c4.244 16.063 17.371 17.966 24.114 12.89 0 0-1.944 18.997-23.796 11.461-19.83-6.821-14.675-44.934-34.822-48.583 0 0 10.788-13.485 22.963-5.077-.04 0 7.655-18.085 27.366-18.164"/><path d="M113.527 67.858s5.75 29.824 33.592 37.082c16.102 4.165 24.153-6.345 23.082-14.714 0 0 15.587 10.986-1.665 26.374-15.706 13.881-46.363-9.32-59.49 6.505 0 0-6.465-16.063 6.821-22.488.04-.04-11.938-15.586-2.34-32.759"/></g><path d="M16.785 225.694c-.517 0-.969-.13-1.485-.194-.258-.065-.581-.13-.84-.065-.451.065-.58-.064-.774-.452-.065-.129-.13-.322-.258-.387-.452-.258-.194-.71-.323-1.097 0-.065 0-.259.194-.13q.096.097.193 0c.097-.096 0-.129 0-.193-.452-.388-.323-.904-.387-1.356-.065-.194-.13-.387 0-.58v-.065c0-.194-.323-.259-.13-.517.065-.13 0-.387.065-.581 0-.13 0-.258-.129-.323s-.129-.129-.129-.258c0-1.033-.258-2.066-.194-3.163 0-.646 0-1.292.13-2.002.064-.387.064-.774.064-1.162 0-.71 0-1.42.065-2.13a6.3 6.3 0 0 0 0-2.195c-.065-.646.064-1.356.064-2.066.065-.904 0-1.872.065-2.84 0-.84.258-1.744.129-2.647-.065-1.033-.065-2.066-.13-3.1 0-.774.065-1.613.065-2.388.065-.323 0-.646-.064-.904-.194-1.226-.13-2.453 0-3.68 0-.258-.13-.322-.323-.322-.516 0-1.033-.065-1.614-.065-.258.065-.581.065-.84-.129-.064-.065-.128-.065-.128-.065-.452.323-1.098.452-1.679.388-.194-.065-.323.129-.516 0 .129-.13.322-.258.258-.452-.065-.065 0-.194-.13-.194a.14.14 0 0 0-.128.13c-.065 0-.13.064-.065.128.13.13.065.259.065.388-.065 0-.194.129-.323.064s-.258-.129-.258-.258c-.065-.194.129-.129.193-.194 0-.064.13-.129.065-.193 0 0-.065.064-.13.064-.128.065-.257.065-.322.13-.13.129-.258.129-.065.258.065 0 .13.129.065.193-.065 0-.194 0-.194-.064-.193-.258-.516-.065-.71-.258-.064-.065-.064 0-.064.064-.065.258-.388.194-.452.13-.065-.194-.13-.065-.194 0a.613.613 0 0 1-.84-.13c-.064-.129-.064-.129-.128 0 0 .13-.065.13-.13.13-.129 0-.064-.065-.064-.13v-.064c-.13.322-.387 0-.516.129h-.194c0-.13.129-.065.129-.065 0-.129-.065-.129-.13-.129-.128.065-.257.065-.386.13-.259.193-.582.193-.904.128-.065 0-.13 0-.259.065-.451.323-1.097.193-1.42-.323-.064-.065-.129-.13-.194-.13-.387-.193-.387-.58-.451-.838 0-.259.129-.452.322-.517.194 0 .194-.129.259-.258.129-.387.258-.775.322-1.162s-.064-.71-.258-.969c-.129-.193-.387-.387-.387-.645-.065-.452.064-.581.516-.517.259 0 .388-.193.452-.322.065-.194 0-.323-.129-.452-.064-.13-.129-.259 0-.323.387-.258.517-.71.646-1.162.129-.258.322-.517.516-.775s.387-.194.517.065c.129.323.129.645.258.968.064.194.194.323.387.258.258-.064.517-.129.775.065.129.129.194.194 0 .323 0 .064-.065.064-.065.064 0 .065.065.065.13.065s.193.064.258 0c.193-.13.193 0 .193.129 0 .064 0 .129.065.129.129 0 .064-.065.064-.13-.064-.193.065-.257.259-.257.064 0 .193 0 .258-.065.129-.194.258-.258.516-.129.065.065.194-.13.13-.194 0-.129.064-.193.193-.129.258.065.452 0 .71-.129h.194c-.13.065-.258.13-.323.194 0 .064 0 .129-.064.193.064 0 .129-.064.129-.064l.387-.194c.065 0 .13 0 .13-.064-.065-.065-.13-.065-.194-.065.129-.064.258-.064.322 0 .13.194.323.258.388-.064 0-.065.064-.065.064 0 .194.064.388 0 .517.129.064.064.129 0 .129-.065l.064-.064c.259.322.517.064.775.064.452.065.775.258 1.227.387.129.065.129.065.193-.064.13-.258.452-.387.71-.258.065 0 .13.064.194 0 .323-.13.581 0 .84.258.064.064.193.064.258-.065.258-.193.516-.387.839-.322.194 0 .258-.065.258-.194.194-.387.517-.646.71-1.033.065-.065.13-.13.194-.065.13.065.065.13.065.194-.13.323 0 .581 0 .84.064.193.193.193.322.193.388 0 .775.13 1.162.065.259-.065.517 0 .71 0 .517.064.969 0 1.485-.13.194-.064.259-.129.323-.322.065-.323.194-.646.323-.904.065-.13.065-.258.258-.194.194 0 .388-.064.517.13.064 0 .064.064.064.064-.064.064-.129 0-.129 0-.064 0-.129-.065-.194 0 0 .064.065.064.065.129.258.323.323.775.323 1.162.064.323.323.323.58.323.13.064.324 0 .453.193.064.065.193.065.258.065 1.097-.323 2.195-.387 3.292-.516.13 0 .259 0 .452-.065 1.033-.065 2.066.065 3.164.065h1.936c.581 0 1.227.064 1.808 0 .323 0 .71.322.646.58 0 .259 0 .452.064.646.065.323-.064.581-.064.904-.259 0-.323.387-.581.387-.259.065-.065.259-.065.323-.064.13.065.194.194.065.129-.065.323.064.452-.065 0-.064.129.065.129.13 0 .58.258 1.097.129 1.742-.065.323 0 .71 0 1.098 0 .323-.13.645-.194.904 0 .258-.323.258-.452.387-.193.194-.452.258-.645.387-.13.13-.258.13-.323-.064 0-.065-.065-.13-.065-.258 0-.259-.129-.323-.322-.259-.388.13-.71 0-1.033.13h-.065c-.064-.388-.258-.065-.387-.065-.388.064-.775.194-1.162.129-.323 0-.71.065-1.033.13h-.517c-.064 0-.129-.065-.129-.065 0-.259-.129-.194-.258-.259-.194-.064-.258-.064-.387.065-.065.064-.194.064-.259.064-.322-.064-.645.13-.968.065s-.516.194-.84.13c-.257-.065-.58-.065-.839-.065-.064.064-.129 0-.193-.065 0-.13-.065-.13-.13 0-.064.065-.193.065-.193 0-.13-.13-.194-.194-.323 0 0 .065-.064.065-.129-.065 0 0 0-.064-.064-.064-.323-.065-.581.064-.904.064q-.484.097-.581.581c0 .13-.065.194.129.194.194.065.064.258.064.387q-.096.194 0 .388c.065.452 0 .904 0 1.356-.129 1.613-.258 3.227-.193 4.841.064.969 0 1.873 0 2.841q-.097 1.743 0 3.486c0 .646 0 1.356.064 2.001.065 1.162-.129 2.325-.064 3.487.064.968-.065 2-.065 3.034 0 .71 0 1.42-.064 2.13s.064 1.42-.065 2.13c-.065.388.065.775.065 1.163 0 .645.064 1.29.064 1.936 0 .13.065.194.065.323 0 .646.129 1.227.129 1.808.064.452.129.904 0 1.42 0 .065.064.194.129.323.065.323-.13.581-.323.775-.129.129-.194.258-.323.322-.452.388-.452.388-.968 0 0 0-.065-.064-.13 0-.451.194-1.226.259-1.807.13-.129-.065-.323 0-.516 0M4.712 184.183c-.129 0-.193-.13-.193-.259s.064-.129.193-.064c.13 0 .323 0 .452-.13.065 0 .13-.064.194 0s0 .13-.065.13c-.193.129-.387.129-.58.323m17.107 4.841c.13-.064.259-.129.388-.129.064-.064.129-.064.129-.129 0 0-.065-.064-.13-.064-.193 0-.387.129-.58-.065-.065 0-.065.065-.065.13 0 .193.065.193.258.257m9.232.259c.13 0 .13-.065.194-.13a.14.14 0 0 0-.13-.129c-.193.194-.387 0-.645-.064-.064-.065-.129 0-.129.064-.065.065 0 .13.065.13.193.129.451.064.645.129m-.323-4.003c.194-.065.259-.13.259-.258 0-.065 0-.194-.065-.13-.13.065-.258.13-.387.13.064.129.129.193.193.258m43.343 41.576c-.129-.13-.193-.259-.323-.388-.064-.064-.193-.129-.258.065s-.193.129-.323 0c-.387-.323-.516-.775-.71-1.227-.129-.323-.258-.58-.516-.774-.13-.065-.13-.13-.13-.194.065-.258-.064-.517 0-.71.065-.452-.258-.646-.322-1.033-.065-.323-.323-.581-.452-.904-.194-.516-.452-1.033-.646-1.55a100 100 0 0 0-1.162-2.582c-.193-.516-.516-.968-.645-1.55 0-.193-.194-.387-.194-.58 0-.065-.194-.194 0-.258.065 0 .065-.065 0-.13l-.194-.58c0-.065 0-.259-.193-.13 0 .065-.065-.064-.065-.064-.064-.194 0-.452-.258-.517-.065-.064.065-.258.13-.387.128-.065.193-.065.128-.194-.064 0 0-.064 0-.129s.194-.064.065-.194c-.065-.129-.13 0-.258.065-.065 0-.065-.065-.065-.13-.13-.257-.194-.516-.13-.838.065-.13 0-.13-.064-.194-.258-.065-.452-.194-.322-.452 0-.194-.323-.58-.581-.645a4.3 4.3 0 0 0-1.292 0c-.322.129-.71.064-1.033.129h-.193c-.775.193-1.55.193-2.324.322-.323.065-.646.194-.969.259-.516.064-1.097.064-1.614.064-.452.065-.904-.129-1.42-.064-.323.064-.646-.194-.968-.065-.194 0-.259.065-.259.258s0 .388-.193.517v.064c.129.259 0 .517 0 .775 0 .13.064.258.064.387-.064.388-.129.84-.064 1.292.064.903-.13 1.872-.065 2.776.065 1.033.13 2 .258 2.97.194 1.161.388 2.259.13 3.42-.13.324-.065.388.387.388.129 0 .387 0 .387.13.065.128-.193.193-.258.258-.258.258-.581.387-.904.451-.064.065-.129.065-.194.13-.129.387-.58.322-.774.58-.065 0-.13.065-.13 0-.387-.258-.839-.129-1.29-.258-.13 0-.323-.064-.323.194 0 .13-.065.13-.13.13-.258.193-.58 0-.839.064l-.064-.065c.064-.387-.258-.129-.388-.129-.129-.065-.258-.065-.322-.258s-.323-.194-.452-.194c-.065-.064-.13 0-.13-.129h.323s.065 0 .065-.065c.065 0 0-.064 0-.064-.194-.065-.323-.13-.517-.194-.129 0-.193 0-.193.13 0 .193-.13.322-.258.387l-.775.387c-.13.13-.258 0-.323-.13a5.7 5.7 0 0 1-.646-1.742c-.193-.904-.129-1.808-.193-2.712-.13-.903-.065-1.872-.065-2.776.065-.58.065-1.162.065-1.678-.065-.775 0-1.485 0-2.26 0-.71.129-1.355.193-2.066 0-.387.065-.839.065-1.29.065-.453.13-.905.194-1.292.064-.323.064-.645.129-.968.064-.388-.065-.84.064-1.291.194-.904-.064-1.808.065-2.712.194-.775.13-1.55.065-2.324-.065-.323.064-.581.129-.84.129-.645.064-1.355.064-2v-1.873c-.064-.645.065-1.226.065-1.872 0-.323-.13-.646-.13-.968.065-.517.065-.969.194-1.485.065-.13.065-.194 0-.323-.064-.065-.064-.13-.064-.194.323-.258 0-.645.064-.968s.065-.775.065-1.097c0-.388-.194-.775.064-1.163.065-.129 0-.451-.129-.71 0-.064-.064-.193.065-.193.323.064.064-.13.064-.194-.129-.258 0-.452.065-.646 0-.129 0-.258.13-.322 0-.065.064-.13 0-.13-.26-.129-.26-.258-.13-.451 0-.065 0-.194-.065-.194-.451-.194-.193-.517-.129-.775.194-.258.194-.516.259-.775 0-.193 0-.322.064-.451.065-.259.194-.517-.258-.452-.065 0-.065 0-.065-.065s0-.064.065-.129c0 0 .064-.065.129-.065.452 0 .581-.387.71-.774 0-.065-.064-.13.065-.13.064-.064.064.065.064.13.065.064.065.193.13.193.128 0 .128-.129.128-.129.065-.129.13-.322.259-.322.064 0 .129.193.193.258.065.129.065.258.259.193.129 0 .064-.129.064-.193s.065-.13.13-.13c.968.065 1.936-.128 2.904-.128.194-.065.388 0 .452-.259h.065c.71-.129 1.291-.58 2.066-.387.193.064.452-.13.58.194 0 0 .194 0 .259-.065.581-.13 1.098-.065 1.679-.065.516 0 1.032-.064 1.549 0 .323 0 .775-.064 1.097.13l.065.064c.387-.129.84 0 1.227 0 .516-.064.968-.129 1.42-.064s.84 0 1.227.129c.129.064.322 0 .451-.065.388 0 .71.065 1.033.194.646.129 1.292.258 1.937.452s1.162.516 1.679.839c.258.13.516.194.774.323.84.323 1.614.774 2.26 1.42.516.452.904.904 1.356 1.356.193.193.258.387.387.516.13.323.387.452.646.646q.484.29.774.775c.71.968 1.227 2.065 1.614 3.227.258.84.452 1.679.517 2.518.064.71.129 1.485.129 2.324.064.969-.13 2.002-.388 3.1-.387 1.613-1.097 3.098-1.872 4.583a7.4 7.4 0 0 1-2.066 2.195q-.774.678-1.743 1.162c-.064.064-.193.129-.258.258-.194.194-.516.258-.775.452-.064.065-.193 0-.129.13 0 .128.065.064.13.064.193 0 .193.064.128.193-.129.259 0 .452.194.646.194.064.194.323.387.387l.065.065c-.065.064-.13 0-.13 0-.064-.065-.064-.13-.128-.065v.065c.064.194.129.323.387.323.194 0 .388.193.517.322.064.065.193.13.193.13.388-.259.323.064.388.258.064.129.064.323.322.387v.065c0 .322.323.516.388.839.064.194.387.387.129.646.71.387.58 1.097.84 1.678.322.646.516 1.42.774 2.13.258.775.452 1.485.775 2.26.322.71.516 1.485.774 2.195.194.581.517 1.097.71 1.679.13.451.259.968.452 1.42.065.258.194.387.517.387.258 0 .387.258.58.387.13.065.194.13.259.194s.065.13.065.13c0 .064-.065 0-.13 0-.129.064-.322 0-.387.128-.064.194.13.259.258.388.13 0 .194.129.194.258-.065.13-.258.13-.323.065-.258-.065-.58.129-.71-.259-.064-.064-.129 0-.129 0-.194.13-.452.194-.646.259-.451 0-.839 0-1.29-.065-.324-.065-.71-.13-1.034-.258-.387-.194-.839-.13-1.226-.065-.323.065-.71.13-1.033-.129h-.065c-.064.323-.323.194-.516.258-.065 0-.065.13-.065.194-.064.323-.193.387-.452.194m-22.789-3.164c.13 0 .065-.129.13-.258-.065-.258-.194-.581-.259-.904 0-.064 0-.129-.065-.129s0 .065 0 .13c0 .322 0 .645.065.968 0 .129 0 .193.13.193m2.323-16.72s.065-.065.194-.13c-.194 0-.258-.193-.387-.258-.065 0-.065.065-.065.13 0 .129.13.193.258.258m.775-.323c.194 0 .13-.194.194-.258 0-.065.064-.194-.065-.194-.129.065-.194.194-.258.323 0 .064.064.129.129.129m-.581-2.001c.064.064.064.064.064 0 0-.13.13-.194.194-.323 0-.065-.064-.194-.129-.194-.13-.064-.065.065-.13.13v.257c-.064.065-.064.13 0 .13m.905-8.135c.387 0 0-.193.064-.258s.065-.13-.064-.13-.13.13-.13.26c0 .064 0 .128.13.128m17.043 16.527c.065.13.13.065.13-.064.064-.065.064-.13.064-.259 0-.064.064-.129.064 0 .13.194.13.194.259 0s.129-.322 0-.452c-.194-.064-.194-.193-.065-.322 0-.065.13-.13.065-.259-.13-.129-.13.065-.194.13-.065 0-.13.064-.194 0s.065-.13.065-.13c.129-.064.129-.193.129-.258l-.581-1.356s0-.129-.065-.129-.064.13-.064.13c0 .129 0 .129-.065.064-.129-.13-.129-.065-.129.065a.36.36 0 0 1-.323.193c-.064 0-.193-.064-.258 0 0-.129-.129-.323-.194-.323-.129 0 0 .194 0 .259l-.064.064c-.065.065-.065 0-.065-.064q0-.194-.193-.194a.14.14 0 0 0-.13.13c.194.193.13.387.13.58-.065.065.129.13.193.13v.193c.065.194-.064.258-.193.323-.259.129-.259.129 0 .387.064 0 .064.065.064.13 0 .128.065.193.13.128.128 0 .128-.064.064-.193s.064-.13.129-.13c.13.13.323.194.194.388-.13.129 0 .129 0 .129.387-.13.387 0 .193.258q-.096.097 0 .194c.13.129.065-.065.194-.065.065 0 .194-.129.258.065s.13.194.323.194c.065 0 .065 0 .13.064m-17.367-17.818c.13-.13.323-.065.387-.258 0-.13-.129-.13-.258-.194-.258-.064-.064.194-.129.258s0 .194 0 .194m-.194-2.711c.065 0 .065-.13.13-.259-.065-.193-.259-.322-.453-.452l-.064-.064c-.065.064 0 .129 0 .129.258.13.258.194 0 .323l-.065.064c-.064.065-.064.13-.064.13.129.064.064-.065.129-.065.064-.065.13-.13.194-.13s.129.065.129.13c.064.064-.065.194.064.194m.84 2.26s.129-.065.193-.195 0-.322-.064-.451c.322-.13.258-.323.129-.581-.065-.065-.065-.194-.065-.259s0-.064.065-.064c.129.193.064 0 .129-.065.129-.064 0-.194.064-.323.13-.387.194-.774.323-1.162 0-.129.065-.258-.064-.322-.13 0-.323-.065-.388.064-.064.065-.193.258-.129.387.194.13 0 .259-.064.388s-.194 0-.259-.065c-.064 0-.129-.064-.193-.064s-.13-.065-.13 0c-.064.064 0 .129.065.129 0 .064.194 0 .13.193s-.13-.064-.194 0c-.13 0-.259 0-.194.13 0 .193.065 0 .13 0 .128 0 .128.064.193.129-.388.064.064.258-.065.322 0 .065.065.13.194.13.064 0 .129-.13.064-.194a.5.5 0 0 0-.129-.258c.13.064.194.064.323 0 .065-.065.13 0 .065.064-.13.194-.065.452-.388.581-.129.065-.322.065-.516.13-.065.064-.13.064-.13.129s.065.064.13.064c.194.13.194.13.064.194 0 .064-.064.129 0 .129 0 .064.13.129.13.064.322-.258.193.065.258.194.064.065-.065.13 0 .194s.064.129.129.193c.064 0 .064-.129.064-.193s0-.13.13-.13c-.065.065 0 .194 0 .323 0 .065-.13.13 0 .194m11.168 9.426c.065 0 .13 0 .13-.13-.194.13-.065-.193-.259-.193a.14.14 0 0 0-.13.129c0 .13.065.258.26.194m8.392 7.424c.064 0 .193.064.193-.065.065-.129-.129-.064-.193-.129-.13-.129-.323.065-.388-.129 0 0-.064 0-.129.065-.064 0 0 .064.065.129.129.064.258.129.452.129m-.904-1.743c-.13-.065-.323-.065-.387-.258 0-.065.193-.065.258-.065.193 0 .129.194.258.258 0 .065-.065.13-.13.065m.582.452c-.13.064-.13 0-.194-.13h-.064c-.065-.064-.194.13-.194-.064 0-.065.194-.13.323-.194.064 0 .129.13.129.194q.097.097 0 .194m-6.004-7.36c.13.065.194 0 .258-.065q.097-.193.194 0 .29-.193.387-.58c0-.065.065-.13-.064-.065-.259.129-.581.194-.775.452 0 .064-.065.193 0 .258m-15.559-16.527c-.129-.064-.322-.064-.387-.323 0-.064 0-.129-.064-.129-.388 0-.065-.193-.065-.193.065-.194.13-.259.13 0 0 .064.128.064.128.064.065.065.517 0 .13.258-.13.065 0 .065.064.13.064 0 .129.129.323.129-.194.064-.194.064-.259.064m.84 1.42c.129 0 .129-.129.193-.258.065 0 0-.064-.064-.129-.258-.258-.194-.452.129-.581.064 0 .194 0 .13-.13-.13-.128 0-.193.064-.257.129-.065.064-.194 0-.323s-.13-.194-.194-.323c-.065-.194 0-.452.064-.516.259-.194.13-.259 0-.388-.129-.064-.258-.064-.387-.129-.452-.129-.84-.064-1.291.065-.065 0-.387-.13-.258.193.064.065 0 0-.065.065-.193.064-.129.258-.193.387s.064.065.193.13c.065 0 .065.064 0 .129 0 .064-.064.193 0 .258h-.193c-.194.129.064.258 0 .387-.065.065 0 .13.064.13.13-.13.387-.194.258-.453.065 0 .259 0 .194.13-.258.322.194.322.194.516.064.064.064-.13.129-.13.129-.064.129 0 .129.065.064.065.129.13.194.13.129 0 .064-.13.064-.194s.065-.13.13-.065c.064 0 .064.065.064.13-.194.387.258.645.323 1.032 0 .065.064.13.129.13m3.809 16.914c.387-.065.839-.065 1.29-.065 1.034.065 2.002-.129 3.035-.258.84-.065 1.679-.194 2.453-.452.969-.258 2.002-.516 2.97-.775.258-.064.323 0 .258.259-.129.258 0 .387.323.387.13-.065.323-.13.387-.258.13-.259.388-.259.581-.388.13-.129.13-.193.065-.323.129.065.194.13.258.194.13.194.194.258.258 0 0-.064.065-.129.194-.064.065.064.194.064.258.064.065-.064.194 0 .194-.129.065-.065-.13-.065-.194-.065s-.129 0-.193-.064c0-.065-.065-.065 0-.065 0-.129.064-.064.064 0 .194.13.323.13.388-.129s.387-.258.516-.387c.065-.065.065.194.194.258.064.065.064.13.193.065.194-.065.323-.194.323-.388.065-.129.065-.193-.064-.193-.13-.065-.13-.194-.065-.259s.13 0 .194.065c.064.13.193.13.258 0s.13-.13.194-.194c.129-.064.193-.193.193-.322s-.129 0-.258-.065-.323-.13-.13-.258c.388-.258.195-.452.065-.71-.064 0-.064-.065-.064-.065.064-.065.13-.258.194-.13.064.26.193.065.258 0 .129 0 .194-.128.258.065 0 .065.13.13.194.065.129 0 0-.065-.065-.13 0-.257-.064-.58 0-.645.258-.193.323-.452.388-.71.129-.193.322-.064.451-.193.13.129.194 0 .13-.13 0-.387.064-.71.258-1.033v-.129c0-.322-.065-.71 0-1.097.064-.581 0-1.162-.065-1.743-.064-1.162-.71-2.066-1.226-3.034-.065-.194-.323-.13-.452-.259-.065 0-.065.065-.065.065.13.258.388.452.452.775 0 0 .13.129.194.258s0 .387.064.452c.194.064.194.129.194.258-.065.13-.194.13-.323.064 0 0-.129 0-.129.065s.13.065.13.065c.387.064.387.129.193.387v.194c.129.064.129-.065.129-.065.065-.064.065-.064.13-.064s.064.064.064.129c-.13.258-.194.452.129.645l-.065.065c-.193.258-.064.387.194.387.129 0 .194.13.194.194 0 .129-.13 0-.194 0-.194.064-.387.064-.581-.13-.13-.128 0-.322 0-.322.258-.258.129-.452-.065-.71a.14.14 0 0 1-.129-.13c0-.193.065-.451-.258-.387-.065 0-.065-.064-.065-.129 0-.387-.064-.58-.452-.71-.064 0-.193.065-.129-.065.065-.258 0-.129-.129-.064s-.193-.065-.258-.13c0-.128-.065-.193-.13-.257-.257-.388-.645-.581-.903-.904-.258-.258-.516-.452-.84-.517-.516-.064-.516-.129-.71-.58v-.065c-.193.193-.451-.065-.58.064-.13.194-.194.065-.323 0a.14.14 0 0 0-.13-.129c-.064.065 0 .13.065.194l.065.064c-.065.065-.13 0-.13 0-.193-.064-.451.065-.58-.129 0-.064-.13-.064-.194 0-.13.13-.452 0-.452-.129 0-.064.13-.129 0-.194-.129 0-.129.13-.129.13-.065.064-.13.193-.13.129-.128 0-.064-.065-.064-.13 0-.129-.064-.129-.129-.129-.258 0-.452 0-.645.065 0-.065-.194-.194 0-.258.064 0 .064-.065.064-.065-.064 0-.064-.064-.129-.064-.064.064-.194.129-.258.258s0 .194.129.258c-.13 0-.258-.064-.323.065 0 .193-.064.064-.064.064-.065-.064-.194-.129-.13-.193s.194-.13 0-.194c-.129-.065-.258-.065-.322.129 0 0 .064.13 0 .13-.13 0-.065-.13-.065-.195-.064-.064-.064-.129-.129-.129s-.065.13-.065.194c0 .194.065.323-.129.065h-.129c-.064.193-.258.129-.387.193-.065.065-.065 0-.13-.064-.128-.194.065-.194.13-.259v-.129c-.065-.064-.065 0-.13.065-.257.258-.516.452-.903.58-.194 0-.452 0-.387-.064.064-.258-.13-.258-.194-.387-.194-.258-.258.065-.387.13-.065 0-.194 0-.259.064-.193.064-.516-.194-.58.193l-.065.065c-.258 0-.517-.13-.84-.065-.064.065-.258-.064-.387.065-.194.194-.323.129-.516 0-.065-.065-.194-.13-.194.064-.065.323-.194.517-.516.71-.065.065-.065.13 0 .13.193.129.064.193 0 .258-.13.13-.13.258-.065.452.065.064 0 .064 0 .129-.065.387-.194.775-.194 1.227-.129.516-.129 1.097-.064 1.678 0 .194-.13.323-.065.452a7.3 7.3 0 0 1 0 1.679c-.064.774-.258 1.549-.387 2.388-.13 1.098 0 2.26 0 3.422 0 .387.064.71.064 1.033q.097.387 0 .774c0 .194.065.259.259.259m12.589-3.164v-.064c.193-.13.258-.388.516-.323.065 0 .065.065.13.065 0 .064-.065.064-.065.129-.13 0-.194.064-.259.064-.129.065-.193.194-.322.13m.903-.065c-.064 0-.064-.065-.064-.065.064-.129 0-.258.193-.258.065 0 .13 0 .194-.065 0 0 .065 0 .065.065s-.065.065-.065.065c-.064.064-.129.064-.194.129-.064 0-.064.129-.129.129m1.873-4.907c-.065 0-.065-.064-.065-.064-.065-.323.065-.646 0-.969 0-.193.194-.064.258-.129.13-.064.065.065.065.13.064.258 0 .516.129.71 0 .129 0 .193-.065.258-.064-.065 0-.13-.064-.194 0-.064-.065-.129-.065-.129-.064.065-.064.13 0 .13 0 .128-.064.193-.129.193 0 .064-.064.064-.064.064m-1.42-4.906c.064 0 .257 0 .128-.194 0-.129.065-.193-.064-.258 0 .13-.258.194-.194.323 0 .064 0 .193.13.129m28.752 34.861c-.258-.064-.581 0-.84 0-.839-.064-1.613-.258-2.453-.258-.258 0-.387-.193-.387-.452.065-.258.065-.452 0-.645-.064-.065-.064-.13 0-.13.387-.064.452-.387.452-.645.065-.775.194-1.485.517-2.195.193-.516.258-1.033.322-1.55.065-.58.323-1.097.517-1.613.323-1.033.71-2.002 1.033-2.97.322-1.033.387-2.13.71-3.163.129-.581.258-1.227.516-1.743.259-.452.323-1.033.517-1.485.129-.259.258-.581.387-.84.194-.258.323-.516.323-.839.129-.84.58-1.55.84-2.324.451-1.485.968-3.034 1.42-4.519.193-.775.58-1.55.71-2.389.129-.387.193-.904.387-1.226.258-.388.258-.84.452-1.227s.258-.775.323-1.227.258-.903.387-1.355c.065-.13.13-.323.194-.452.193-.323.129-.71.322-1.098.065 0 .065-.129.13-.129.258-.064.129-.387.322-.516.065 0 0-.065 0-.065-.064-.064-.193-.064-.129-.193.065-.065.194 0 .259 0s.193.064.258-.065c0-.13-.13-.065-.194-.13-.13-.064-.13-.451 0-.516.323-.064.258-.387.258-.58.065-.194.065-.388.259-.517.064-.065.129-.065.064-.194-.129-.387-.064-.71.258-1.033a1.58 1.58 0 0 0 .323-.968c0-.065 0-.194.065-.258 0-.065.064-.13.064-.259-.064-.064-.258-.258.065-.129.064 0 .193-.129.129-.193-.13-.13-.13-.259-.194-.388-.129-.322.065-.387.323-.387s.452-.13.581-.452c.065-.194.065-.323-.13-.387-.386-.194-.645-.581-.967-.904-.065-.065-.194-.194 0-.258.451-.194.968-.388 1.549-.452.323.064.71.064 1.097 0 .194-.065.388-.13.452-.388 0 0 0-.064.065-.129s.129-.258.258-.193 0 .193 0 .322c-.064.388 0 .452.387.388.323-.065.646-.194 1.033-.258.259-.065.581-.194.775.064 0 .065.065.065.065 0 .258-.194.516-.13.774-.13.581 0 1.162-.064 1.743-.128.517-.065 1.033.194 1.55.194.387 0 .775.129 1.162.193.129 0 .258 0 .387-.064h.194c.516.322 1.162.193 1.614.58.194.065.194.13.064.259s-.258.258-.387.323-.387.193-.323.258c.194.387-.064.775.13 1.033.064.129.064.387.322.194.065-.065.13 0 .194.064a.14.14 0 0 1-.13.13c-.064.064-.193.128-.128.257s.193.323.322.259c.323-.13.259.129.259.258s.064.194.129.323c.129.258.193.516.323.774.387 1.098.71 2.26 1.097 3.357.258.904.581 1.743.71 2.712.065.194.13.452.258.645 0 .13.13.259.065.452-.065.065.065.065.065.13.129.193.258.322.193.58-.064.13.13.194.194.323.258.517.387 1.098.581 1.614.065.194.13.388.194.517.129.193-.065.323.129.516.129.065.129.388.193.581s.13.388.259.581c.064.194.129.388.193.646.259.71.517 1.485.71 2.195.388 1.356.84 2.711 1.227 4.002.194.84.517 1.614.775 2.39.129.516.258 1.097.516 1.678s.452 1.29.646 1.936.452 1.227.71 1.808c.323.904.581 1.808.775 2.647.258.84.452 1.614.71 2.453.129.646.258 1.291.452 2.001.193.775.323 1.485.452 2.26 0 .258.258.323.452.387.129.065.322.13.451.13.259 0 .259.129.259.322s-.065.323-.259.388c-.387.129-.71.258-1.097.387l-.387.194c-.13.129-.194.129-.388.064-.323-.129-.645-.064-.904 0-.58.065-1.097.13-1.678.13-.194 0-.387-.13-.646 0-.064 0-.064-.065-.064-.065.064-.194-.065-.259-.13-.259-.128 0-.258.065-.387.13 0 0 0 .193-.129.064-.064-.064-.323-.064-.193-.323.064-.064.064-.193-.065-.193-.13-.065-.194.064-.13.129 0 .193-.064.193-.128.129q-.194-.194-.388 0c-.193.323-.452.194-.645.129-.517-.13-1.033-.323-1.55-.452-.387-.129-.839-.645-.71-1.033 0-.193-.193-.323 0-.387.13-.065.259.129.323.129.194-.13.387-.13.581-.194l.065-.064h-.13c-.129.064-.193 0-.193-.13s.064-.128.194-.128l.064-.065h-.064c-.323-.13-.452-.323-.452-.646-.065-.258-.194-.516-.259-.839-.064-.194-.064-.323.065-.452-.13-.064-.323-.129-.387-.323 0 0-.065 0-.065-.064.065-.581-.452-1.098-.452-1.679 0-.387-.194-.71-.129-1.097 0-.13-.194-.194-.194-.452 0-.13-.193-.323-.064-.517.064-.129-.194-.064-.194-.193 0-.323-.194-.646-.194-.969-.064-.452-.322-.839-.516-1.226-.065-.13-.13-.323-.387-.13-.065.065-.259 0-.452 0-.71-.064-1.485.065-2.26-.064-.452 0-.904 0-1.356-.064-.58 0-1.226 0-1.807.064-.452.065-.904.065-1.356-.064a1.13 1.13 0 0 0-.646 0c-.258.129-.451 0-.71.064-.645 0-1.355.194-2.066.065a4 4 0 0 0-.903-.13c-.71.065-1.356.13-2.066.194-.194 0-.323.065-.452.065-.387-.065-.452.193-.517.452-.322 1.162-.71 2.26-1.097 3.357-.387.968-.84 1.936-1.098 2.905-.129.516-.258 1.033-.322 1.485-.13.58-.323 1.033-.581 1.55-.13.128-.259.322-.194.516 0 .064 0 .193-.065.258-.516.516-1.097.904-1.872 1.033-.193 0-.387.064-.58.129s-.453 0-.711 0c-.13 0-.194 0-.258.064a2.1 2.1 0 0 1-.904 0m18.4-19.238c.064.13.128.13.128 0 .065-.194.13-.194.258-.194a2.15 2.15 0 0 1 1.098-.064c.13 0 .323-.13.387 0 .065.064.065.258.194.193s-.065-.129-.065-.258c.065-.064 0-.193 0-.258a11.5 11.5 0 0 0-.58-2.13c-.194-.581-.323-1.227-.517-1.873-.194-.516-.258-1.097-.452-1.678-.194-.517-.323-1.033-.516-1.55-.259-.516-.194-1.162-.388-1.678-.129-.323-.258-.646-.323-.904 0-.129 0-.258-.064-.387-.388-.452-.452-1.033-.517-1.614.065-.258-.193-.452-.193-.71-.194-1.098-.581-2.195-1.098-3.228-.064-.13-.129-.258-.129-.388 0-.064 0-.129-.064-.129-.13 0-.065.065-.13.13-.258.645-.322 1.355-.58 2.065-.13.194-.323.323-.323.581.064.065-.065.194 0 .388 0 .064.064.129 0 .193-.259.194-.259.452-.259.775-.193.581-.387 1.227-.645 1.808a19 19 0 0 0-.517 1.807c-.258.969-.71 1.872-.968 2.84-.194.711-.387 1.486-.646 2.196-.452 1.033-.58 2.195-1.033 3.228-.129.323 0 .516.388.452.064 0 .193-.065.129.064 0 .194.129.13.194.13.387-.13.71-.194 1.032 0 .065 0 .13.064.13-.065 0-.194.193-.13.258-.065.452.13.84 0 1.291 0 .387-.064.775.13 1.162-.064l.13.129s.257 0 .322.129c.13-.258.258-.258.516-.194.13.065.323 0 .452-.064s.194-.065.194.129c0 .064-.065.129 0 .129.13.064.13-.065.194-.13.129-.064.193-.257.387 0 .13.13.452.13.517.065.322-.258.516-.064.645.194m52.64 18.916c-.259.258-1.163.258-1.42-.065-.065-.129 0-.194.064-.258.129-.13.387-.13.322-.388s-.322-.129-.451-.129-.259.065-.388.065c-.193 0-.323.064-.452-.194-.064-.193-.322-.452-.516-.452-.323-.064-.065-.129-.065-.193s.13-.13 0-.194c-.064-.065-.129 0-.193.065q0 .096-.194.193c-.194.097-.194.194-.065.323.065.065.194.258.388.13 0-.065.129-.13.129-.065.129.193-.065.064-.13.129-.064.129-.258.129-.322.129-.387-.065-.387.323-.646.452-.193 0-.322.129-.452.129-.645 0-1.29.194-1.872.129-.323 0-.516-.13-.774-.194-.323-.064-.71-.064-.969-.387-.064-.13-.129-.194.065-.258.064 0 .129-.065.129-.13s.129-.064.064-.129c0-.064-.129-.064-.193-.064-.13 0-.259.064-.259.194-.129.322-.258.451-.645.387-.13-.065-.194-.13-.065-.194.194-.193.194-.323.065-.516-.065-.13-.065-.323-.13-.452 0-.13 0-.258-.064-.323-.387-.194-.258-.516-.258-.775 0-.322-.194-.58-.194-.903 0-.388-.193-.71-.193-1.098 0-.194-.065-.323.193-.323.13 0 .517-.452.452-.58 0 0 0-.065-.064-.065-.259 0-.323-.259-.323-.452-.065-.388-.13-.71-.258-1.033-.065-.323-.13-.646-.388-.904-.129-.194-.064-.452-.258-.646.387-.322 0-.516-.064-.774 0-.13-.065-.258-.194-.13-.065.065-.13.065-.194.065-.064-.064 0-.129.065-.129.129-.323.129-.646 0-.904-.13-.193 0-.516-.323-.516.194-.258-.13-.388-.13-.581 0-.065 0-.13-.064-.13.065-.193-.452-.387 0-.516.13 0 .194-.129.065-.193 0-.065 0-.194-.065-.194-.129 0-.129.129-.129.194 0 .193-.258.129-.323.193-.064-.129-.387 0-.322-.258.064-.13.064-.194-.065-.323-.065-.064.065-.129.194-.129.064 0 .129.065.193.065.13.064.259 0 .323 0-.064-.13-.194-.065-.258-.13h-.13c0-.322-.128-.387-.451-.322-.065.064-.065-.194-.065-.323 0-.065.065-.194-.129-.194 0 0-.129-.129-.129-.193 0-.323-.194-.581-.258-.84-.13-.452-.13-.968-.388-1.355-.129-.194-.129-.323-.129-.452.065-.452-.387-.84-.258-1.292.065-.064.065-.129 0-.129-.258 0-.194-.193-.194-.322.065-.194 0-.323-.129-.452-.129-.259-.193-.452-.129-.775v-.065c-.323-.064-.129-.387-.258-.58-.065-.13-.258-.388.13-.517 0 0 0-.387-.13-.452-.194-.13-.065-.387-.323-.516-.064 0 0 0 .065-.065.129-.065.193-.194.129-.323-.258-.193-.258-.323-.194-.645 0-.13-.193-.194-.323-.259-.064 0-.129.065-.129 0-.064-.064 0-.129 0-.129q.388-.193 0-.387c-.064 0-.129-.065-.064-.13 0-.064.064-.064.129-.064.129-.064.452-.064.129-.323-.065-.064.065-.322 0-.451 0-.065-.065-.065-.13-.065-.064-.065 0 .065 0 .065-.064.129-.064.193-.193.064-.064-.064.065-.323-.193-.129-.065-.13 0-.13.064-.194 0-.064.065-.129 0-.193s-.129 0-.129.064h-.13c-.064-.064 0-.129 0-.129.324-.194.388-.387.065-.646-.064-.064 0-.193.065-.258 0-.193-.194-.452-.452-.516-.13-.065-.194-.194-.13-.388.065-.129.195-.322-.128-.451-.065-.065-.065-.13.064-.259.065 0 .13-.064.065-.193 0-.065-.13-.13-.194-.065-.129.065-.129-.065-.129-.13.065-.193-.129-.322.065-.451.064-.065 0-.194 0-.258-.323-.323-.323-.71-.388-1.098 0-.258 0-.258-.193-.129h-.065q-.097-.097 0-.193c.13-.388.13-.388-.194-.582-.258-.129-.193-.387-.258-.645 0 0 .065-.065 0-.13s-.193 0-.258-.128c0-.13.194 0 .194-.065v-.129c0-.13-.065-.13-.13-.065-.129.065-.129-.064-.193-.129s0-.129.064-.129c.13-.129.13-.193.065-.323-.258-.258-.065-.645-.323-.839-.064-.064 0-.194-.129-.194-.064.065-.064 0-.064-.064.193-.13.064-.194.064-.387-.064-.13-.064-.323-.258-.259-.065 0-.13-.064-.065-.129.259-.323.13-.58-.064-.904 0-.064-.065-.064-.13-.064-.322.064-.258-.194-.193-.323.064-.194 0-.387-.13-.646-.064-.064-.064-.258-.064-.387.065-.258-.129-.452-.258-.58-.194-.13-.13-.13-.065-.195.13-.064.259.065.259-.129-.065-.129-.13-.322-.259-.322-.451-.065-.451-.388-.516-.646 0-.258-.13-.387-.323-.517a.14.14 0 0 1-.129-.129c.13-.387-.387-.387-.387-.774 0-.323-.194-.646-.259-.969-.064-.258-.322-.452-.451-.71 0-.064-.194-.129-.065-.258a.196.196 0 0 1 .258 0c.065 0 .13.064.194.064.194.065.323.065.452 0 .129-.129.194-.322.387-.451a.14.14 0 0 1 .13-.13c.322.065.58.13.839-.064.064-.065.064-.065.129 0 .064 0 0 .064 0 .129-.13.13 0 .13.064.13.13 0 .258-.065.323-.065.13-.065.194-.13 0-.194-.065 0-.13 0-.065-.065 0-.064.065-.064.065-.129.258.258.452-.064.71.065.065 0 .13 0 .13.064s-.065.065-.13.065-.129-.065-.129.064c0 0 .065.065.13.065a.5.5 0 0 0 .322-.13c.194-.322.516-.322.84-.386.774-.13 1.613-.194 2.388-.259.194 0 .387-.064.516.194 0 .13.194.065.323.13.194 0 .323.064.323.257 0 .065 0 .13.064.194.388.387.323.581-.193.71-.194.065-.258.13-.13.323.388.775.582 1.614.97 2.389.257.58.322 1.226.516 1.807.322.969.58 1.937.903 2.84q.388 1.066.581 2.131c.065.388.13.775.259 1.162.322 1.227.645 2.518 1.162 3.68.71 1.55 1.097 3.293 1.614 4.907.193.516.387.968.516 1.484.065.259.258.517.065.84-.065.064-.065.258.129.258.258.064.258.258.193.452-.064.258-.064.387.194.516.065 0 .13.065 0 .13 0 .064-.064.128 0 .128.258.194.387.388.323.71 0 .13.129.13.129.259.13.387.194.775.452 1.162.13.194.194.452.323.71.129.323.129.71.387 1.033.065.065 0 .13.065.194.064.129-.259.387.129.322v.065c.193.71.645 1.291.774 2.001 0 .13.194.323-.129.194-.129-.065-.129.065-.064.13.258.128.258.451.387.645.065.129.13.322.194.452.193.258-.194.193-.13.258s.259 0 .323.129c0 .13 0 .258.065.258.13 0 .194-.129.194-.258.129-.452.258-.84.387-1.291.258-.969.646-1.872 1.033-2.712.258-.516.387-.968.516-1.485.194-.58.388-1.097.646-1.678.323-.581.387-1.356.71-1.937s.323-1.226.517-1.807c.129-.323.193-.646.322-1.033.194-.581.323-1.162.517-1.743 0-.13 0-.259.129-.323 0-.065.065-.065.065-.13-.13-.451.064-.839.193-1.29.065-.323.13-.582.259-.84.193-.258.193-.58.451-.839.065-.065 0-.258.194-.13.065.065.13 0 .065-.064-.065-.129-.13-.193.064-.258v-.065c-.193-.387-.129-.387.065-.71.064-.129.129-.322.129-.452 0-.193.064-.451.194-.58.129-.065.129-.194.129-.259 0-.193-.065-.387.258-.387 0 0 .064-.065.064-.13-.387-.322.065-.451.194-.645.194-.323.517-.58.323-1.097-.065-.194.13-.452.258-.71.065-.065.065 0 .13.064s.128 0 .064-.065c-.13-.322.129-.58.258-.839.065-.193.13-.323.065-.516.516 0 .064-.258.064-.258-.064-.259.065-.517.323-.581h.13c-.065-.323.257-.517.193-.84-.13-.452.064-.904.129-1.29 0-.195.129-.388.129-.582-.065-.452.13-.775.323-1.162.129-.323.129-.71.258-1.097s.517-.646.646-1.098c.064-.13.193 0 .322 0s.259 0 .259-.194c.064-.193-.065-.193-.194-.258-.258-.129-.516-.387-.84-.516-.128-.065-.064-.259-.193-.388-.13-.193.13-.258.13-.387.128-.194.193-.194.387-.13 0 0 .064.065.064 0 .13-.257.452-.064.646-.193.129-.064.258-.064.322 0 .388.13.71.065 1.098.194.064.064.064 0 .13 0 .451-.13.903-.388 1.355.064h.129c.323 0 .58 0 .84-.129s.451.065.71.065c.322.064.71-.065.968.258 0 .065.064 0 .129 0 .258-.13.452 0 .58.258 0 .065 0 .194.065.194.388.13.323.452.323.775-.129.452-.064.968-.387 1.355-.065.065 0 .13 0 .13 0 .258-.065.451-.194.645-.129.258-.129.517-.258.775-.13.323-.13.775-.517 1.033-.129 0-.129.064-.064.193.129.259-.13.517 0 .775.064 0 0 .065 0 .13-.194.128-.13.387-.194.516-.258.58-.323 1.162-.452 1.678-.193.581-.516 1.098-.645 1.743-.065.323-.13.71-.323.969-.13.193.064.58-.323.71-.129 0 .13.258.065.387-.065.258-.065.581-.259.646-.193.193-.193.387-.193.58q0 .388-.388.388c-.129 0-.258.065-.258.13.065.128.13 0 .194 0 .129 0 .129.193.258.128.065 0 .065.13 0 .13-.129.064-.129.258-.129.322-.194.194-.065.388-.13.517 0 .452-.257.71-.386 1.097-.065.13-.13.194-.065.323.065.258 0 .387-.323.452-.064 0-.064 0-.129.064 0 .065.065.065.13.13 0 0 .193.064.128.064-.193.065-.064.323-.258.323 0 0-.13-.065-.065 0 .194.323-.129.581-.193.775-.258.516-.452 1.097-.646 1.614-.258.645-.452 1.29-.645 1.936-.323 1.098-.646 2.195-1.033 3.228-.259.71-.388 1.485-.581 2.195-.323 1.098-.581 2.195-.969 3.228-.193.581-.387 1.098-.58 1.679-.259.71-.388 1.485-.582 2.195-.129.452-.323.904-.387 1.355 0 .71-.258 1.356-.323 2.066 0 .323-.258.581-.194.969 0 0-.064.064-.129.064-.258-.064-.322.258-.452.388-.064 0-.064 0-.064.064.129.452-.13.84-.258 1.291-.194.323-.388.646-.581.904-.065.194 0 .258.064.258.194.065.323.194.581.194.194 0 .258.194.388.323.064.129 0 .193-.194.258-.065 0 .064.194-.065.323-.129.064-.193.194-.322.194-.323 0-.582-.13-.84.064-.064.065-.387-.129-.452-.323-.129-.258-.645-.323-.839-.193 0 .064-.064.129-.064.193.064.065.129 0 .193 0 .13-.064.258-.064.258.13 0 .064.065.129 0 .129-.064.064 0-.065-.064-.065-.194 0-.323.065-.517.194m-7.166-2.002c.065-.064.13-.129.194-.129.065-.064.065-.193.194-.064s.193 0 .193-.065c.065-.129 0-.194-.129-.194-.129-.064-.258-.064-.193-.258 0-.064 0-.129-.065-.129-.064-.064-.129 0-.129.065-.258.193-.065.452-.194.71 0 0 .065.064.13.064m-3.745-17.043c.065-.065.13-.13.13-.194s-.065-.129-.065-.193c0-.323-.259-.259-.388-.388-.129.13.065.258.065.388 0 .064-.065.258.064.322.065 0 .065.13.194.065m.323-.065c.064 0 .194-.064.194-.193 0-.065-.065-.194-.194-.259-.13 0-.065.13-.065.194 0 .13-.064.258.065.258m1.678-.064c.065-.065.259 0 .259-.065 0-.193-.065-.258-.194-.258-.065.065-.13.13-.13.258 0 .065 0 .13.065.065m-3.421-2.905c0 .064.129 0 .129 0 .129-.194.129-.323 0-.452-.065-.065-.258-.065-.065-.194.065 0 .065-.129 0-.129-.129-.065-.129-.13-.064-.258q.097-.097 0-.194c0-.452-.517-.581-.646-.968 0-.065-.064-.194-.194 0 0 .064-.129.129-.064.193.064.194.13-.064.194-.064s.064.064.064.129c-.129.129-.064.258-.194.387-.064.065-.064.194 0 .194.259 0 .259.13.194.258 0 .13.065.194.13.194.064.064.128.129.064.194-.258.129-.065.258 0 .387.129.129.452.064.452.323m.839.258c.13-.065-.065-.065-.065-.13a1.2 1.2 0 0 0-.129-.451c-.193-.258 0-.258.194-.194.13.065.13-.064.13-.193l-.065-.13c-.13.194-.452.065-.452.323-.065.258.064.517.193.71.065.065.194.13.194.065m-.323-1.033c.13-.065.323-.065.194-.258 0-.065-.13-.065-.065-.13h.13c.064.065.193.13.193 0 0-.193-.129-.322-.194-.451 0-.065-.064-.065-.129-.065s-.064.065-.064.13c.064.193-.065.257-.194.322-.064.065-.194.13-.129.194.13.064.065.258.258.258m-.71-3.034c.258-.065.065-.194.065-.259-.065-.064-.065-.129 0-.064.129.064.193-.065.258-.13s.258-.193.323-.193c.193.065.322.13.322-.129 0-.13.13-.194 0-.258s-.258-.13-.322.129c-.065.194-.194.387-.388.194-.129-.065-.193 0-.258.064-.129.065-.129.065-.129-.129.065-.13-.065-.258-.13-.258q-.193.29-.387 0c-.064-.065-.258-.065-.064-.194q.097-.097 0-.194c0-.064-.065 0-.13.065-.128.065-.193.194-.257.323-.065-.065-.194 0-.194.064.129.194-.065.388 0 .581.064.065.064.194.194.13.129 0 .193-.065.129-.194 0-.194-.065-.388-.13-.581.194 0 .259.064.259.258s.064.258.258.194c.194-.13.194 0 .13.129v.323c.064.322.257.193.451.129m.517-1.291c.129 0 .258-.065.387-.065.194 0 .064-.194.129-.258-.065-.13.065-.194-.065-.258-.129 0-.193.064-.129.193 0 .065-.064.065-.129.13s-.129.128-.193.258m-1.744-1.033s.065-.065.065-.13v-.129a.194.194 0 0 1 0-.258c.065 0 .13.065.194.13 0 .064 0 .128.193.064.13-.065.13-.13.065-.258 0-.065-.065-.13 0-.13h.13c.257.259.257 0 .322-.129 0-.064-.065-.193 0-.193.129-.065.129.064.194.129s.129.193.193.193c.194-.064 0-.193.065-.322l.064-.065c0-.129.065-.323-.129-.387s-.258.064-.323.193c-.064.194-.129.194-.322.065-.065-.13-.13-.065-.194 0-.13.258-.13.323-.387.13 0-.065-.065-.065-.13-.065-.451 0-.516-.065-.58-.517-.065-.129-.065-.129-.13-.129-.193-.065-.387-.258-.387-.387-.065-.065-.065-.13.065-.194.129 0 .258-.13.387-.194.194-.064.194-.064.194.065 0 .064.064.129.129.129.129 0 .064-.13.064-.194-.064-.129-.129-.193-.193-.323 0-.064-.065-.064-.065-.129q.097-.096.194 0c.129.065.129-.064.129-.129-.065-.193-.13-.323-.323-.258s-.194-.065-.194-.194c.065-.129.323-.193.259-.258-.065-.194-.13.13-.323.065-.194-.13-.388-.259-.388-.452 0-.13-.129-.194-.258-.194-.129.065 0 .194 0 .258.065.194.194.388-.064.581-.13.065-.065.194-.065.323.065.258.258.517.258.775 0 .452.065.84.517 1.097 0 0 .064.13 0 .13-.065.064-.065.064-.13 0 0-.065 0-.13-.064-.13-.064.065-.064.13-.064.194.064.194.129.387.258.516 0 .13.129.259.323.13.258-.13.258.064.322.193.065.065.065.194.065.258s0 .13.064.13m.84-3.1c.064 0 0-.128.064-.257 0-.13-.129-.259-.193-.452 0-.065-.13-.065-.194-.065l-.065.065c-.064.129 0 .129.065.193.13.065.258.13 0 .194-.065.065-.065.194 0 .194.064.129.194.129.323.129m-2.324-1.808c.129 0 .064-.129.064-.194s0-.129.065-.064c.064 0 .129-.065.193 0 .13.064.259.13.388.064 0-.064.129-.064.064-.064-.322-.194-.129-.323 0-.517-.258-.064-.129-.387-.452-.451-.258-.13-.516-.388-.839-.517-.129-.064-.129-.064-.258 0-.194.13-.258.258-.13.517.13.129.13.322.194.451 0 .194.065.323.259.259q.193 0 .193.193c0 .065.065.13.13.194 0 .065.064.13.129.13m1.614-.13c.258 0 .387-.13.258-.194-.194-.258-.258-.645-.323-.903-.13-.259-.194-.452-.387-.581-.065 0-.13-.13-.194.064-.065.13-.065.323-.258.452-.065.065 0 .13 0 .194.064.193.129.064.129 0 .064 0 .129.064.129.129.065.129.194.258.194.452.064.193.322.258.452.387m19.173 3.68c.13-.065.13-.258.194-.387.065 0 .065-.13-.064-.13s-.065.13-.13.259c0 .064-.064.129-.064.193-.065.065 0 .065.064.065m54.06 31.182c-.258.064-.452 0-.581-.259-.258-.452-.194-.903-.194-1.355s-.064-.517-.516-.517c-.065.065-.13.065-.13.065-.322-.259-.58-.13-.839 0s-.516.129-.774.193c-.13 0-.194 0-.194-.064-.194-.194-.323-.194-.452 0 0 .064-.064.064-.064 0-.065-.13-.194-.065-.259-.065-.129.13-.258.259-.452.065 0-.065-.064-.065-.064 0-.194.323-.581.064-.84.129-.128.13-.258 0-.128-.194 0-.064 0-.064-.065-.064-.516.064-.968 0-1.485-.065-.129 0-.194.065-.194.13-.064.128-.064.128-.129.128-.129 0-.193-.064-.193-.129s0-.193-.13-.193c-.129-.065-.193.064-.258.129s0 .129-.129.129v-.13c0-.064 0-.193-.129-.193-.064 0-.129 0-.129.13-.065.128-.065.128-.194.064-.193-.13-.452-.194-.71 0-.129.064-.323.129-.516.064-.323-.129-.71-.064-1.033-.258-.065-.065-.194-.323-.323-.065-.065.065-.065-.129-.065-.193.194-.194-.193-.258-.193-.452-.065.064-.194.129-.258.194-.065.129.064.064.064.064.065.065 0 .13 0 .13a.9.9 0 0 1-.258.193c-.065 0-.065-.13-.065-.194 0-.129-.064-.064-.193-.064-.194.064-.388.193-.581 0-.13-.13-.194-.13-.13.064 0 .258-.129.258-.258.13-.193-.13-.323-.065-.387.064-.065.064-.13.129-.13 0-.064-.13-.322-.065-.128-.258.064-.065.193-.065.129-.13s-.258-.129-.323-.064c-.194.258-.323.194-.516.065-.065-.13-.194 0-.259 0-.193.064 0 .129 0 .193s0 .258-.129.13c-.129-.065-.194-.13-.258 0-.13.064-.065-.065-.13-.13 0 0 0-.129-.064-.129s-.193 0-.193.065c-.065.129-.065.193-.194.129-.13 0-.194-.065-.13-.194.065-.064.065-.064 0-.129-.064 0-.193 0-.257.065-.065 0 .064.064.064.064.065.13.065.194-.064.258-.13 0-.259.13-.323-.064-.065-.323-.194-.13-.258 0-.065.064-.065.193-.13.064-.258-.258-.452 0-.645.065 0 0-.065 0-.065.064-.129.259-.323.323-.645.194 0 0 0-.064-.065-.064-.129-.065-.323.322-.452.064-.129-.323-.258-.129-.387 0-.065 0-.065.065-.13 0-.128-.064-.322-.129-.451-.064-.13 0-.13-.13-.13-.194.065-.194-.128-.323-.258-.452-.064 0-.064-.065-.129 0v.13c.065 0 .13.128.13.193.129.064.193.193.064.258-.13.13-.258.065-.323-.065-.193-.129-.258-.129-.452 0s-.387 0-.58-.064c-.13 0-.453.129-.194-.258 0 0 0-.065-.065-.13-.064 0-.194.065-.194.13-.064.387-.258.258-.387.064-.13-.129-.13 0-.194.065s-.064.129-.129.193c0 .13 0 .194-.129.13-.064 0-.064-.065-.064-.13s.064-.129 0-.193c-.065 0-.065.064-.13.129-.451.323-.645.323-1.162.129-.193 0-.193.13-.322.13-.452.064-.84 0-1.227-.065-.194-.065-.387-.065-.452.193-.129.13-.194.259-.323.323-.193.065-.193-.194-.322-.258-.517-.258-.775-.71-.969-1.227-.258-.516-.387-.968-.258-1.55.064-.193 0-.451 0-.71-.258-.968-.13-1.936-.194-2.904-.064-1.227-.258-2.454-.387-3.68-.065-.71-.065-1.42-.194-2.195-.064-.969 0-1.937-.064-2.905-.065-1.098-.065-2.13-.13-3.228-.064-1.033-.129-2.002-.129-2.97q.097-.484 0-.968c-.096-.485.065-.646.065-1.033 0-.517 0-1.098.13-1.614 0-.258-.065-.517 0-.775.128-.323-.195-.71.128-1.033.065-.064-.129-.129-.129-.258.065-.387.13-.775.13-1.162 0-.452.193-.84.128-1.227 0-.258.065-.452.13-.645.064-.259 0-.517 0-.775 0-.194-.13-.452 0-.71.064-.065.064-.13.064-.13.387.194.194-.258.387-.258.13-.064 0-.193 0-.258-.064-.129-.129-.258-.129-.387-.129-.194 0-.452-.064-.71s-.13-.517-.065-.775c0-.065-.194-.13-.258-.258 0-.065-.065-.194 0-.194.064-.064.064.065.129.065.065.064.258-.194.258-.323a.42.42 0 0 1 0-.387c.065-.065.065-.13.065-.13v-1.033c.129-.322-.13-.387-.258-.516h-.13c-.129-.13-.322 0-.451-.194.193-.064.258-.387.516-.452.065-.064.258 0 .258-.129-.064-.129-.193-.064-.258-.064 0 0-.065 0-.065-.065 0 0 0-.064.065-.064a.5.5 0 0 1 .323-.13c.064-.064.193 0 .193-.129s-.129-.064-.193-.129c-.194-.064-.388 0-.517-.064-.064 0-.129 0-.129-.065h.13c.128-.064.258-.064.387-.129.064 0 .129 0 .193-.13 0-.128-.129-.064-.193-.128-.065 0-.194 0-.13-.13 0-.128.13-.064.194-.064.13.065.194 0 .258-.064.065-.13-.129-.13-.193-.194 0 0-.065-.065-.13-.065-.193-.064-.322-.064-.064-.193.13-.065.065-.194-.064-.259-.065 0-.194 0-.194-.064.129-.13-.065-.387.129-.452.13-.065.13-.065.065-.194l-.065-.064c.194-.323.065-.452-.258-.646v-.064c.129-.194.193-.323-.13-.259a.14.14 0 0 1-.128-.129c.064-.064.129-.064.193-.064.194.064.323-.065.452-.13s.194-.193.13-.322c-.13-.194-.065-.258.128-.388.13-.129.065-.322 0-.451 0-.13 0-.13.13-.194.129 0 .322-.065.451-.13s.194.13.194.194c.065.13 0 .259.065.388 0 .129.064.258.193.193q.194 0 .194-.193c-.065-.13-.065-.194.065-.258s.129.064.193.129c0 .064.065.129.194.064.258-.129.58-.064.775-.323.129-.064.129 0 .193.065.065.258.388.452.581.258.259-.193.388 0 .581.13.065.064.13.193.259.193.193 0 .258-.194.193-.387v-.13c.065 0 .065.065.13.13.128.129.322.322.451-.065 0-.064.13-.064.194 0 .194.13.323.13.452-.13 0-.064 0-.064.064-.128 0 .064 0 .064.065.129 0 .194.258.065.323.258l.064-.064c.065-.194.194-.323.259-.452.064-.194.193-.13.258-.065.193.13.258-.064.452-.064.193.064.452.064.645.129s.323.064.388-.13c.129-.129.322.065.452 0 .064-.064.193.13.322-.064 0-.065.065 0 .065.065.064.064-.065.258.064.193.259-.064.581.13.71-.193.065-.065.13-.13.259-.13.645.065 1.291.13 1.937.13.322 0 .58-.13.968-.13.58 0 1.227-.064 1.872-.064.065 0 .258-.065.323.129.064.13.129-.13.258-.065.84.259 1.679-.129 2.518-.064.968.064 1.872.064 2.84.194.71.129 1.485.193 2.195.064.323-.064.646-.129.904.194 0 0 .065.064.13.064.774-.064 1.613.13 2.388.13.258 0 .517.258.71-.194 0-.065.065.064.13.129.064.258.258.194.451.194.194-.065.194-.194.194-.388 0-.129 0-.323.129-.323s.065.259.13.388v.064c-.13.259.193.452.257.71 0 .194.065.388.13.582.064.064.064.064 0 .129-.323.322-.13.645.064.968.194.387.323.84.258 1.291-.064.388.13.84.13 1.227-.065.129 0 .258-.13.387s-.129.323 0 .517c.065.064.065.129 0 .258-.064.194 0 .452.065.645 0 0 0 .065.064.065.065.065.13-.065.194 0 .13.065 0 .065-.064.065-.065.064-.13.064-.194.129-.13.193-.258.387-.194.645.065.194-.129.13-.129.194-.194-.13-.581.194-.71-.258-.065-.13-.194-.065-.323 0-.194 0-.452.193-.58-.194-.065-.065-.13 0-.195 0-.129 0-.322.065-.387-.13 0-.064-.13-.064-.13 0-.128.13-.322.065-.451 0-.323-.128-.71 0-1.097 0-.452.065-.969-.128-1.485-.064-.065.065-.065 0-.13-.064 0-.388-.193-.13-.322-.065s-.194.194-.388.194c-.129-.065-.258.064-.258-.194 0-.129-.258-.129-.387-.064-.065 0-.13.129-.13.064-.064-.323-.387-.193-.516-.193-.258-.065-.452 0-.71-.065v.13c0 .064-.064.128-.129.064-.258-.259-.516.064-.775 0h-.129c-.129-.452-.516.129-.71-.13-.065-.064-.13-.064-.13 0 .065.388-.064.13-.128.065-.13-.064-.323 0-.452.065-.065.064-.13.193-.258 0-.13-.13-.388 0-.517.129-.193.064-.387.129-.58 0-.13-.13-.194-.065-.259 0-.13.064-.194.193-.258-.065-.065 0-.13-.064-.194 0-.065.13-.194.065-.258.065-.065.064-.194.064-.194 0-.064-.065.065-.13.065-.194.064-.064.258 0 .193-.129-.064-.065-.258-.065-.322.065s-.194.258-.13.387c0 .064 0 .194-.129.129-.193-.194-.452 0-.645 0-.258 0-.388-.065-.517-.258-.064-.194-.129-.194-.193-.065-.065.065-.13.194-.259.065-.064-.065-.193.064-.193.193 0 .259-.194.194-.323.13s-.194 0-.323 0c-.258.064-.516 0-.775 0s-.58.064-.839-.13h-.064c-.194.13-.388.323-.517-.064 0-.13-.194-.13-.258-.065-.13.13-.258.13-.323-.064-.064-.065-.129-.13-.258-.065-.065.065.064.13.064.194v.129c-.193-.13-.322-.065-.451 0-.065-.13-.259-.065-.388-.13-.064 0-.193-.128-.258.13 0 .065-.258.065-.323.065-.387-.13-.775-.065-1.097-.13-.259-.064-.323 0-.323.259.129.71.387 1.485.452 2.195.129 1.033.129 2.066.193 3.099 0 .839.065 1.678.065 2.453s-.065 1.614-.065 2.388c0 .194.065.323.323.323.517 0 1.033 0 1.55.065.452.129.839-.065 1.29.064.13.065.388 0 .517-.064.194-.065.388-.13.388.193-.065.13.129.065.193.065.259 0 .517-.13.775-.13s.452-.064.71.065c.065.065.388.194.388-.129 0-.129.129-.064.258-.064.064-.065.129 0 .193.129.065.258.323.323.452.064.065 0 .065-.129.194-.129.065 0 .13.065.13-.064.064-.065 0-.065-.065-.13-.065 0-.13 0-.13-.064s.065-.064.13-.064h.193c.065.064.194.129.194.064.064-.13-.065-.13-.065-.13-.064-.193.13-.193.194-.257.13-.065.194-.065.258.064.13.259.452.323.646.581 0 .065 0 0 .064-.064 0-.065 0-.13.065-.065s0 .194.13.194a.196.196 0 0 0 0-.258c0-.13 0-.259.128-.323.194-.065.13.129.194.194s.129.193.194.258c.322.129.322.323.064.516-.129 0-.194.13-.129.258 0 .065.13.259.323.13h.064c.065.064 0 .129-.064.129-.388.129-.388.387-.323.774.065.259.065.517.065.775 0 .13.129.194.193.065.194-.323.388-.646.388-1.033 0-.13 0-.194.129-.259h.064c.13.13 0 .194 0 .259-.064.387 0 .71 0 1.097 0 .194.065.323-.193.452s-.065.387-.065.581q.194.484.194.969c-.065.258.064.451 0 .645 0 .065.064.13.064.194.517.129.258.452.258.71 0 .129-.064.258 0 .452.065.387-.129.71-.258.968 0 .13-.129.13-.193.065-.452-.258-.904-.13-1.356-.065-.323.065-.646.13-.969.065-.129 0-.387.323-.387-.13-.129.065-.258 0-.387.13-.13.064-.194.064-.323 0-.065 0-.194 0-.194-.065 0-.129.13-.064.194-.064.194 0 .065-.13.065-.194.064-.065 0-.065-.065-.065-.194-.064-.387.065-.387.259-.065.258-.194.193-.323.193-.065 0-.13-.064-.258-.064-.065.064-.13 0-.13-.065 0-.129 0-.193.065-.258.065 0 .258.13.194-.065 0-.064-.194-.129-.259-.064-.129.129-.516-.13-.516.258 0 .065-.13-.064-.194-.064-.064-.065-.129-.259-.193 0 0 .064-.13.064-.194 0s-.065-.13-.065-.194.194-.065.065-.13-.194 0-.258.065c-.065.259-.258.194-.452.13s-.388-.259-.71-.065c-.065.064-.13-.13-.13-.194-.064-.194-.129-.194-.258-.129-.258.258-.516.065-.71 0a1.3 1.3 0 0 0-.84-.065c-.193.065-.257.13-.064.259.065.064.13.129.13.258 0 .065.064.194-.13.13-.064 0-.193.064-.322.064-.065 0-.194.322-.259-.065 0-.064-.452.194-.452.323-.129.58-.129 1.226-.193 1.808 0 .968 0 1.936-.065 2.905 0 .903-.129 1.807-.258 2.711 0 .387 0 .775-.065 1.162-.064.258.259.323.259.517h.064c.258-.194.517-.13.84-.065.193.065.451-.065.71-.065s.516.065.839 0c.064 0 .064.13.064.13.065.064.065.129.13.064 0-.258.193-.129.322-.194.388-.129.388-.129.259.259 0 .064-.065.193 0 .193.129 0 .129-.129.129-.193.193-.388.193-.388.58-.194.259.065.453-.065.646-.065.323 0 .581-.064.84.065h.451a1.45 1.45 0 0 1 .904.065c.13.064.388.193.581-.065.13-.194.388 0 .581 0 .323.065.646.065.969.13.129.064.258 0 .258.193 0 .064.13.194.194 0 0-.065.064-.194.129-.13.193.065.387 0 .58-.064.065 0 .13-.064.194 0 0 .065-.064.13-.129.194 0 0-.129 0-.064.064 0 .065.064.065.129.065.194-.065.387.13.516-.13.517-.064.969-.322 1.55-.128.452.129 1.033 0 1.485.064.129.065.322 0 .387.13 0 .064.065.064.065.064.322-.13.645-.13.903-.258.13-.13.259-.065.323-.065.258 0 .194.065.13.194-.065 0-.13.064-.065.064.064.065.129 0 .129 0 .129-.258.258-.452.58-.258.26-.323.711.13.97-.194h.128c.323.323.71.13 1.098.13.323 0 .71-.13 1.033.064.064 0 .129 0 .129-.064.387-.259.71-.259 1.097-.13.194.065.452.13.71.065.194-.065.452 0 .646.065.13.064.194.064.194.129s-.065.129-.13.129c-.322.194-.128.452-.064.645s.13.388.13.517c0 .064 0 .129-.065.129-.259.194-.194.516-.452.71-.065.065-.13.13-.065.13.323-.065.13.193.194.257.194.13 0 .388.129.582.065 0 0 .193-.13.193s-.064-.064-.064-.129c0-.129-.064-.194-.129-.194s-.064.13 0 .194c0 .13 0 .452.323.258 0 0 .065 0 .065.065 0 .129.064.258-.065.323-.194.129-.258.193 0 .322.065.065.065.194.065.259a8.2 8.2 0 0 1 0 2.517c-.13.646-.194 1.292-.323 1.937-.13.452-.323.775-.775.969m-19.69-22.596c.129.13.258.194.258 0 0-.258.258 0 .323-.194-.323.065.064-.258-.194-.258-.13 0-.258-.129-.323.13-.064.128-.129.258-.258 0 0-.13-.065 0-.065.064-.193.323.13.194.259.258m1.42 0c.13 0 .13-.064.194-.129.064-.13 0-.13-.065-.194-.064 0-.129 0-.129-.064.065-.194.581-.452.775-.388.258.13.516-.064.71.13.194.064.194-.194.387-.13.065 0 .13 0 .13-.064 0-.13-.13-.13-.194-.13-.065-.064-.259.065-.259.065-.129-.193-.258-.258-.452-.258h-.064c0-.064.064-.064.064-.064.065-.065.194-.065.13-.194 0-.065-.13-.065-.194 0-.194 0-.323.258-.646.064-.064-.064-.387-.129-.645.065h-.194c-.452-.387-.968-.323-1.485-.516-.064 0-.193-.065-.193.129 0 .129 0 .258.129.258.064 0 .129-.065.193-.065.13 0 .259-.064.323.065 0 .064.065.129 0 .194s-.129-.065-.258-.065c-.194-.065-.323.065-.387.194s.064.193.129.193c.322.065.645.065.904-.129.258-.129.387.065.516.13.194.128 0 .193 0 .322-.065.065-.065.194-.13.258 0 .065.065.13.13.13s.065 0 .065-.065c.064-.13 0-.258.129-.323.193 0 .064.258.193.323 0 0 .065.064.065.129 0 .13.064.13.129.13m17.624 15.558c.13-.065.065-.323.194-.388 0-.064-.064-.129-.064-.064-.13.129-.323.129-.517.129-.064 0-.129.064-.064.13.129.064.322.193.451.193m-20.335-33.958c.129-.065.451 0 .58-.194 0-.064.323-.193 0-.258-.129 0-.064-.129 0-.194 0-.064.065-.129 0-.193-.129-.13-.064-.194 0-.323l.13-.13c-.194 0-.065-.322-.388-.257s-.645-.065-.968.258c-.065.064-.258 0-.194.194.065.129.259.064.323 0 .258-.194.452.258.71.064.065.13.194.194.194.323a.5.5 0 0 1-.13.258c-.128 0-.128-.194-.193-.258h-.129c0-.065-.065 0 0 0 .13.194 0 .323-.065.387-.129.194.065.258.13.323m38.823 39.445q-.096.097-.193 0c-.452-.71-.388-1.42-.452-2.195-.13-1.033-.258-2.066-.258-3.099.064-.903-.065-1.807-.065-2.711 0-1.227-.065-2.389-.13-3.615 0-1.033-.128-2.066-.128-3.1-.065-.451 0-.903 0-1.355v-2.001c0-.452.064-.904 0-1.356v-4.196c0-.258.064-.452.064-.71-.064-.13.065-.194.194-.065.065 0 .13.065.13 0 .064-.064 0-.064-.065-.129-.13-.065-.259-.13-.194-.323.064-.064 0-.193-.065-.258a.61.61 0 0 1 .13-.646c.064 0 .064-.064.129-.064.064.064 0 .129 0 .129v.13c.064.064.064.193.193.128.065 0 .065-.064.065-.129-.194-.258.064-.194.193-.194h.194c.065-.064.258-.064.258-.129-.064-.129-.193 0-.258 0-.129 0-.194-.064-.323-.129-.064-.064-.064-.129 0-.129.065-.065.194 0 .194-.065-.065-.129-.13-.129-.194-.129-.129 0-.193.065-.322.065s-.13-.065-.13-.194c.065-.064.452-.258.517-.258s.064.065.129.065v-.13c-.065-.064-.065-.129-.065-.129 0-.064.065-.193-.064-.193-.065 0-.065.064-.065.129s-.064.129-.129.193c0 0-.064.065-.129 0s0-.064.065-.129c.193-.193.258-.452.452-.645s.064-.452-.13-.581c-.129-.065-.193-.13-.129-.259v-.258c-.129-.193-.129-.258.13-.258.064-.065.129-.065.129-.194v-.064c-.065-.065-.065 0-.065.064-.13.065-.194 0-.258-.064-.065-.13 0-.258-.065-.388-.064 0 .065-.064.13 0s.193.065.322 0c.065-.064.13-.064-.064-.129-.13-.064.064-.193.064-.322.065-.13.194-.194.323-.065.064.065.129.13.194.065s0-.13-.065-.194c-.065-.13-.13-.258-.323-.258-.193-.065-.129-.194-.064-.323 0-.194 0-.323-.259-.388-.193 0-.193-.064-.129-.258 0-.193.13-.323.194-.516 0 0 .065-.065.065 0 .064 0 .129.193.193.064s.13-.258.065-.322c0-.194-.194.129-.194-.065-.064-.194.258-.065.13-.258a.42.42 0 0 1 0-.388c.064-.064.064-.129-.065-.129-.065 0-.13-.129-.194 0q-.097.097 0 .194c.097.097.194.065.065.194-.065.064-.065-.065-.13-.065s-.129-.064-.129 0c-.129.194-.129.065-.129 0s.065-.129 0-.194-.129-.129-.064-.193.064.064.129.064.129.065.129 0c.129-.452.452-.904.258-1.42-.064-.323-.129-.646-.129-.904 0-.129 0-.258-.13-.258 0 0-.064 0-.064-.065.259-.193-.064-.322 0-.516.065-.71.065-1.356-.064-2.066-.065-.258.064-.516.064-.775 0-.129.323-.064.259-.258 0-.194-.194 0-.323-.064-.065-.194.064-.323.193-.388.13-.129.065-.258 0-.258-.387-.065-.258-.258-.258-.452 0-.258 0-.452-.064-.646 0-.193.064-.387-.065-.58q-.097-.097 0-.194c0-.065.194-.065.13-.13 0-.064-.194-.064-.259-.064s-.13.065-.13.065c-.128-.065-.193.129-.257 0 0-.065.129-.13.258-.13.258-.064.323-.258.387-.451.13-.13.13-.388-.193-.388 0 0-.065 0-.13-.064 0-.065.065-.065.13-.065.129-.064.258-.064.387-.193-.13-.065-.258.064-.452.064-.065 0-.13 0-.13-.064l.065-.065c.194-.194.517-.258.646-.517 0-.064.065-.064.13 0 .322.259.58.065.838-.064a3.4 3.4 0 0 1 1.614-.194c.323.065.581-.064.904-.064s.581.129.775.387c.129.13.387.13.516.323 0 0 .13-.065.13-.194-.065-.064 0-.129.064-.064.194.193.387-.065.581 0 .13.064.13-.065.065-.13 0-.064 0-.193.129-.193.064 0 .193-.13.129.064 0 .065.064.065.129 0l.194-.193c0-.065-.065-.065-.13-.065h-.193c-.065-.064-.13-.129-.065-.129.194-.065.258.065.452.065.065 0 .065.129.065.193-.065.13-.065.194.064.258.194.065.259.259.259.452 0 .13.129.259.258.259s.193-.194.258-.065c.13.194.452.323.323.581s0 .452.064.646c0 .064.065.129.065.129-.194.516.129.904.129 1.356 0 .58.13 1.097.13 1.613-.065.969 0 2.002 0 2.97 0 .581 0 1.098-.065 1.614v.13c-.065.193-.388.128-.13.451.194.13-.064.387-.064.581.064.13-.065.388.129.517-.194.129 0 .387-.194.516-.064.065-.064.194.065.194.258-.065.129.129.129.193 0 .194-.13 0-.13 0-.128 0-.193.13-.257.194 0 .13 0 .323.129.323.258.064.258.194.258.387 0 .904.065 1.743.13 2.647.128 1.42.193 2.84.257 4.261 0 1.098-.064 2.195 0 3.293 0 1.807.065 3.68-.064 5.487l-.194 4.325c0 .71-.064 1.42-.129 2.066s.194.775.775.581c0-.064.129-.064.129-.064.258.193.58.064.84.258.128.13.322.13.451.13.194 0 .323.257.452-.065.258.193.645-.323.84.129h.128c0-.259.259-.13.388-.259 0-.129.129-.064.193 0s.13.194.194.194c.13.065.258.13.258 0 .065-.129-.064-.064-.129-.064-.064-.065-.129-.13-.064-.194 0-.065.064 0 .129 0 .193.064.387.129.58.064 0 0 .065 0 .13.065.064.194.193.194.387.065.065-.065.323.064.323-.194.13 0 .064.064.064.129s-.064.194.065.194.065-.13.065-.194c0 0 0-.065.064-.065l.065.065c.064.258.323.065.452.065.193 0 .322-.13.452 0 .064.064.129 0 .129 0 .064-.065.064-.13.064-.065.194 0 .388 0 .581.065.194 0 .323.129.517.129.129.064.193 0 .258-.13s-.13-.129-.13-.193c-.064 0-.128 0-.128-.065.064-.064.129-.064.193-.064s.194.064.259.064c.129 0 .129.13.129.194 0 .194 0 .194.193.194.259 0 .517-.065.71.064.13 0 .13-.064.194-.129 0-.129 0-.129.13-.129.451-.065.839.194 1.226.13.065-.065.13-.065.13 0 .128.257.451.322.71.193.128-.13 0-.13-.065-.194-.065 0-.194 0-.13-.064 0-.13.13-.065.194-.065.13.065.323 0 .388-.13s.193 0 .258 0 .193.065 0 .13h-.13c-.064.065-.193.13-.193.258-.065.13.065.13.194.13.064 0 .129.064.258.064.064.064.258.194.129-.065-.065-.129 0-.193.13-.193.128-.13.257-.065.387 0 .064.064.064.064.129.064s.129-.129.129-.064c.064.129 0 .129-.13.193-.064 0-.128.065-.193.065s-.194 0-.194.064c0 .13.194.065.194.065.194.258.452.13.71.258.258.065.517 0 .775.065.258.129.58.064.904.064.452.065.903 0 1.355 0 .259 0 .452 0 .71.065.065 0 .065 0 0-.065-.064-.193 0-.258.13-.322.193-.13.387-.259.387-.517-.065-.064 0-.129.065-.129.129 0 .193.13.258.194s.064.064 0 .129c0 .064-.065.129-.13.129-.128.129 0 .323 0 .452.065.129.194 0 .259 0s.129.064.194.129c0 .064 0 .064-.13.129-.064 0-.064.13 0 .194s0 .129 0 .193c.13.388-.258.517-.322.775-.065.387.129.517.322.646.259.129.323.322.13.516-.065.065-.13.065-.13.194.065.064.13 0 .13 0 .129 0 .193-.065.258 0 0 .064 0 .193-.065.258s-.193.065-.129.13.13 0 .194-.065.129-.13.258-.13c.065 0 .13.065.065.065-.259.258 0 .194.129.258.064.065.129.13.064.194-.064.194.065.452-.193.516s-.259.259-.323.452c0 .388.064.775.129 1.162 0 .388-.065.452-.387.452a1.2 1.2 0 0 0-.517.13c-.452.193-.84.322-1.291.128-.13-.129-.323 0-.517 0-.322 0-.645-.129-1.033-.193-.968-.194-2-.13-3.034-.194-.387 0-.71-.194-1.097-.194-.646 0-1.291.13-1.937.13h-.13c-.71-.13-1.42.064-2.13.193h-1.032c-.775-.064-1.55 0-2.325.065-.774 0-1.549.129-2.388.064-.323-.064-.775 0-1.098.065-.193.064-.452.194-.516-.13 0-.064-.065-.064-.13-.064s-.064.065 0 .065c.13.258-.064.258-.193.258-.13.065-.323.13-.452-.13 0-.064 0-.128-.064-.128-.13 0 0 .129 0 .193-.13.13-.194.259-.388.259-.452 0-.904.064-1.356 0s-.968-.13-1.42-.065c-.323 0-.58-.064-.904-.129-.387-.065-.839.13-1.29 0-.065 0-.065.065-.13.13-.064.193 0 .451-.452.387-.194-.065-.58 0-.904.193m2.84-2.582.776-.194c.129-.064.193-.129.193-.258.259.516.323.516.84.258h.193c.194-.064.194-.193.258-.323 0-.129-.064-.258-.129-.387-.064-.065-.193.065-.258.13s-.129.064-.194.064c-.129-.065-.064-.13 0-.194 0-.065-.064-.065-.129-.065-.064.13-.193 0-.322.194 0 .065-.13.258-.259.388-.129-.065-.193.064-.258.064-.323-.194.194-.387 0-.516-.064-.065.065-.13.13-.13.128.13.193.065.257-.064 0-.13.13-.13.259-.13.064 0 .193 0 .193-.064s-.064-.064-.129-.129c-.193-.064-.387-.129-.516-.387-.065-.13-.194-.13-.323.064-.065 0-.065.065-.13.13s-.322.193.065.193c.065 0 .13.065.13.194h-.065c-.258-.13-.581.064-.775-.065-.258-.129-.452 0-.516.194s-.388.194-.258.452c.064.064.064.258-.065.323 0 .064 0 .129.065.193.322.259.71.194.968.065m2.711-.065c.13 0 .13-.064.13-.193-.065-.065-.065-.13.064-.13.323.065.258-.258.194-.258-.13-.129-.323-.193-.388-.323-.193 0-.258.13-.258.259-.064.193.065.323.13.516 0 .065 0 .194.128.13m-2.647-5.746c.323.064.517-.452.84-.13 0 0 .064-.064.129-.064 0-.13.064-.13.129-.065.13 0 .323-.064.452-.064.064 0 .129.064.194-.065 0-.064 0-.129-.065-.129-.258-.129-.258-.194-.065-.323.065-.064.065-.258.065-.258-.194 0-.258-.064-.323-.194 0 .065-.064.065-.064.13v.258c0 .064.193.064 0 .129 0 .064-.13.194-.194 0 0-.065-.387-.258-.452.064 0 .13-.13.13-.194.065s-.064-.13 0-.194c.259-.258-.129-.258-.193-.258-.323-.064-.646.323-.581.646a.5.5 0 0 1 .064.258c.065.194.13.194.258.194m5.423 5.68c.065.13.13-.064.13-.064-.13-.193-.065-.193.064-.129.387.194.775.194 1.162-.064 0-.065.065-.065.065 0 .129.129.258.064.322.064.323-.064.581-.258.904-.13.13 0 .13-.064.13-.128 0-.323.129-.388.387-.258.193.064.323.064.516-.065.065 0 .13-.13.13-.065.128.065 0 .13 0 .194-.065 0-.065.13-.065.13.064.064.064-.065.129-.065.323-.194.71-.452 1.097-.13.13.13.388-.064.323-.193-.129-.194-.323-.387-.452-.517 0 0-.064 0-.064.065-.194.387-.259-.065-.388-.065 0-.258-.129-.064-.258-.064-.129.064-.323.129-.323-.13-.064-.128-.129-.193-.258-.064-.064 0-.064.065-.129.065-.258 0-.452.129-.646-.13 0 0-.064 0-.064.065-.194 0-.388.065-.646.065h-.064s-.194.064-.194-.065.065-.064.194-.064.322-.065.452-.065c.193 0 .322-.064.322-.258 0-.13 0-.387.194-.13a.196.196 0 0 0 .258 0c.065 0 .13-.064.13-.128-.065-.065-.194 0-.259-.065-.258-.129-.58.13-.775-.194-.064-.064-.129-.064-.129 0-.064.194-.387 0-.452.259-.129-.13-.322.064-.451-.065s-.259-.064-.388-.064c-.387-.065-.84.129-1.291.064-.194 0-.323.13-.387.323s0 .323.193.323c.065 0 .13.064.13.129s-.13 0-.13 0c-.193-.065-.193 0-.193.129-.065.194-.13.387-.323.323-.258-.065-.517-.194-.517-.517.065-.129.065-.323-.129-.323-.129 0-.064.194-.064.323v.065a.73.73 0 0 1-.194.71c-.064.129-.129.194-.194.323-.193.193-.064.452.194.516q.29.097.581 0c.29-.097.387 0 .646-.064.193-.065.516-.194.774.129m-4.841-9.361c.129-.065 0-.13.064-.194 0-.129-.064-.129-.13-.129-.128 0-.128.065-.128.13 0 .128-.065.128-.13 0 0 0 0-.065-.064-.065l-.064.064c0 .13.387.258.452.194M261 221.69c.065-.065.258.065.194-.13 0-.128-.452-.257-.517-.128-.064 0-.064.064-.064.064.193 0 .258.194.387.194m.258-.387c.065 0 .194 0 .13-.065 0-.129-.13-.258-.259-.194-.064-.064-.193-.064-.193.065 0 .194.258.065.322.194m1.55 1.549c.064.065.193 0 .129-.13 0-.064 0-.193-.13-.193-.064.065-.193.065-.193.194-.064.129.065.129.194.129m.968-.323c.065 0 .13-.129.065-.129-.065-.387.387-.129.387-.323.065-.064.194.065.258.13 0 .064.065.129.13.064s.129-.13.129-.194 0-.129-.065-.129c-.258 0-.452-.129-.646 0-.129.065-.258-.193-.387 0v-.064c-.065-.13-.065-.323.13-.323.257 0 .257-.065.128-.258-.129-.13 0-.13.065-.194a.73.73 0 0 0 .516.194c.065 0 .194.064.259-.065.129-.129.193-.194.387-.064.064.064.064.064.129 0s0-.13-.065-.13-.064-.129-.129-.193c-.258-.194-.387-.259-.645.064-.13.13-.259.13-.452.13-.194-.194-.452.258-.581-.13h-.065c-.258.194-.516.13-.774.065-.065 0-.13 0-.13.064h.065c.065.065.13.13.194.13.387-.065.064.258.193.322 0 .065-.064.065-.064 0-.13-.064-.194-.129-.323 0 0 .065-.065.13.065.13.064.064.193.129.322.193.13-.323.323-.064.452-.129.13 0 .13.065.13.13-.13.193-.259.451-.388.386-.323-.129-.646.065-.904-.064l-.064.064c-.065.065-.065.13 0 .13.193 0 .452.322.645.064.13-.129.194-.129.323-.064s.258.193.452 0c.064-.065.129 0 .129.064.065.065.065.13.13.13m2.581.257c.194-.129.452-.064.646-.193.065 0 .065 0 .13-.065h-.13c-.258 0-.452.065-.646.13-.064 0-.129-.065-.129.064 0 0 .065.064.13.064m2.065-.387s.13.065.13-.064-.13-.194-.194-.194c-.388 0-.71-.194-1.098-.258-.129-.065-.193.193-.387.129-.258-.13-.452.064-.71.064-.065-.064-.194.065-.194.194 0 .194.13.13.258.13.71-.065 1.42-.195 2.195 0m-.322-.582c.064.065.193.065.258-.064 0-.194-.065-.194-.194-.194-.064 0-.129.064-.129-.065h.065c.129 0 .129-.064.258-.064s.193-.194.064-.258c-.193-.065-.387-.323-.645-.259a.7.7 0 0 1-.258-.064c.064-.13.193-.13.258-.13h.193c.194.065.452.065.646.13.065 0 .13.064.13-.065s.064-.194 0-.258c-.13-.065-.065.064-.13.13h-.065c-.129-.195-.387 0-.58-.13-.323-.194-.582-.194-.904 0-.065.064-.065.064-.065 0-.065-.13-.194-.194-.323-.065-.129.065.065.13.13.259.064.064.064.322-.065.258-.258-.13-.388.194-.581.194-.13-.065-.194.064-.258.193-.065 0-.065-.323-.259-.129-.064 0 0-.064 0-.129.065-.065.13-.065 0-.13q-.097-.096-.193 0c-.065.13-.13.26-.065.388 0 .065.13.13.258.065h.323c.194.129.452.258.646.258.516.065.968-.13 1.485.13m-20.272-20.079c.194.065.065-.193.13-.258s-.065-.064-.13-.064c-.129-.065-.193.064-.193.129q0 .193.193.193m25.565 23.435c.065-.129-.129-.258-.193-.323-.13-.064-.259-.064-.323-.064s-.194-.065-.258.064c0 .194.064.194.193.259.065 0 .13 0 .259.064.064.065.193.194.322 0m-2.905-2.324c.065 0 .13 0 .065-.13 0-.128 0-.128.129-.128.129.064.194.064.323.064h.064c.065 0 .13 0 .13-.064s-.065-.065-.13-.065c-.193-.129-.387-.064-.58-.064s-.259.193-.259.322c.065.13.194.065.258.065m-22.918-23.564c-.13 0-.194-.064-.194-.129a.194.194 0 0 1 0-.258c.065-.13.259-.065.194-.258 0-.065.065-.065.065 0 .064.064.129.193.064.258-.129.064-.258.064 0 .129.065 0 .065 0 .13.065-.13.064-.194.129-.259.193m26.663 26.21c0-.193.193-.193.193-.322s-.129-.064-.258-.129c-.065-.065-.13 0-.13.13s0 .257.195.322m-25.63-26.275c.129-.13.194-.259.323-.452 0 0 0-.065-.065-.065s-.064 0-.129.065c0 0 0 .129-.065.064s-.064-.193-.193-.064c-.065.064 0 .129.064.193s.065.13.065.194c-.065.065-.065.13 0 .065m22.854 22.982c.064 0 .129-.064.129-.129.064-.064.129-.129.129-.193.064-.065.129-.194.193-.13.065 0 0 .065.065.13.065.129 0 .129-.13.129-.064 0-.128.064-.064.129h.323s.13-.065.13-.13-.194-.193.064-.193c.064 0 .323-.129.194.194 0 0 0 .129.064.064.065 0 .13-.129.194-.193s-.065-.065-.065-.13c-.193-.322-.516-.193-.775-.258-.193 0-.322-.258-.451-.064-.13 0-.194.064-.259-.065 0-.064.13-.064.194-.129h.194c.322-.129.71.194 1.033-.129.064-.065.064 0 .129.065.129.193.258.451.516.064.065-.129.323-.194.452-.064s-.129.064-.194.129l.065.064c0 .13.065.194.065.258s-.065.13 0 .194c.064 0 .064-.129.129-.129.129-.065.129-.13.129-.258-.065-.065 0-.065 0-.13 0 0 .064 0 .064.065.13.452.259 0 .388 0 0 0 .129 0 .064-.064 0-.065-.064-.065-.129-.065h-.064l.064-.064c.388-.065.258-.388.258-.646.065-.065-.129-.13-.193-.194-.065 0-.065.065-.065.065.258.258-.129.387-.129.58 0 .065-.065.13-.065.065-.064 0-.064-.064 0-.129s.13-.193 0-.193c-.129-.065-.258-.194-.322 0-.065.129-.194.064-.259.129-.064-.259-.322-.194-.516-.259l-.258-.258s-.13-.193-.194-.129 0 .258 0 .323c.065.064.194-.065.13.064 0 .065-.065.065-.13.13-.323.064-.387-.259-.646-.388-.064 0 0-.064.065-.064s.194.064.13-.065c0-.129-.13-.064-.195-.064-.193.064-.322.193-.58.129-.388-.065-.84.193-1.292-.065h-.129a1.34 1.34 0 0 0-.645.387c-.065.065-.259 0-.259.194.065.13.13.194.259.194.387.129.71.194 1.097 0 .065-.065.194-.194.258 0 .065.129-.258.516-.322.452-.259-.194-.581.064-.84-.13-.193-.064-.387 0-.58-.064-.13-.064-.194 0-.259.065 0 .064 0 .129.065.129.258.064.516.258.71.387.064.065.193.065.258.13.194.257.516.128.775.193.322 0 .645-.065 1.033.064m-.517-3.292c-.194-.065-.387.065-.516-.13-.065-.128-.13-.064-.13 0-.064.13-.129.13-.193.13-.065-.13 0-.194.064-.258.13-.194.323-.258.581-.258.13.064.259 0 .194.258-.064.064 0 .064.065.064s.193 0 .129-.129c-.065-.258.064-.129.193-.064.065.064.13.064.194.129.065 0 .13.064.065.129l-.13.129c-.193-.258-.322 0-.516 0m2.195 1.485c.13-.13.323-.065.323-.323h-.13c-.128 0-.257 0-.257.194 0 .064.064.193.064.129m.065-1.679c-.194.065.064-.193-.065-.193-.064-.13-.064-.259.065-.259.193 0 .452 0 .452.13 0 .193-.259.258-.452.322m-26.405-35.12s-.064 0-.064-.064c-.065 0-.13-.065-.065-.13 0-.064.581-.193.646-.193v.065s0 .064-.065.064c-.129.065-.258.13-.452.259m2.518-.452c.13-.065.323.064.323-.13s-.194-.129-.323-.193c-.194 0-.516-.13-.516.064-.065.259.258.194.516.259m4.325.452c.13-.065.323 0 .323-.194 0-.13-.129 0-.193-.065-.065.065-.259-.064-.259.13 0 .064.065.193.13.129m38.823 42.479c-.323 0-.645-.13-.968 0-.065 0-.13 0-.13-.13-.128-.451-.451-.838-.387-1.355 0-.194-.129-.387-.129-.58 0-.84-.064-1.68-.064-2.519-.065-1.226-.13-2.453-.065-3.744 0-.775.065-1.485.065-2.26 0-1.42.064-2.905 0-4.325q-.097-1.646 0-3.293l.193-4.196c.065-.516.13-1.033.13-1.55 0-.71.129-1.42.129-2.194.064-.646 0-1.356.064-2.066.065-.646.065-1.356.194-2.001.064-.452 0-.969.064-1.42l.194-2.648c.065-.839 0-1.678.065-2.517 0-.452.064-.904.064-1.291-.064-.194-.064-.452-.064-.646-.065-.065 0-.194.064-.258.258-.13.065-.323.13-.517 0-.193-.323-.452 0-.645-.065-.323.193-.517.193-.775v-.065c-.387-.064-.13-.387-.194-.58 0-.13-.064-.259-.064-.388-.065-.258 0-.581.129-.775.129-.258.064-.58.258-.774.065-.065-.064-.194-.194-.13s-.258.13-.387.13c.13-.065.194-.194.323-.194.258-.194.516-.323.516-.646 0-.129.065-.193.13-.129.129.065.258-.193.322.065.065.064.194.193.13.258 0 .387.193.258.387.194.323-.13.71-.13 1.097-.065.323.065.646.13.904.194.194 0 .581-.323.581-.452.065-.258.194-.258.323-.13.258.453.645.259.904.13.323-.065.645-.065.904 0 .322.064.58-.13.839.064.258.13.516.452.516.71-.064.646-.129.71-.71.84-.258.064-.452.064-.387.452.129 1.55.129 3.099.129 4.648 0 1.097-.065 2.26-.13 3.422-.064.71 0 1.355.065 2.065.13.581.13 1.162.13 1.744.064.968.064 2 .129 2.97 0 1.226 0 2.517-.065 3.808-.065 1.033-.194 2.13-.258 3.164 0 .968-.13 1.872-.13 2.84-.064.581 0 1.227 0 1.808 0 .774 0 1.55-.064 2.26-.064 1.484-.129 2.904-.064 4.39a26 26 0 0 1 0 3.163c-.065.774-.13 1.549-.259 2.324-.064.516 0 1.097 0 1.614-.064.258.259.452.388.645 0 .065.193.065.258 0 .129-.064.258-.064.323 0 .258.065.193.13.064.323-.193.258-.58.387-.904.452-.645.258-1.42.452-2.065.387-.517-.064-.904.259-1.356.065-.775.387-1.55.129-2.26.129m26.623.646c-.13 0-.323.129-.388-.13-.064-.193-.129.065-.258 0-.194 0-.387.065-.581.13-.258 0-.581-.065-.775-.194-.323-.258-.645-.323-.968-.581-.194-.194-.258-.065-.258.194 0 .064.129.193-.065.258-.13 0-.13-.13-.194-.258-.129-.323-.064-.71-.258-1.033v-.065c.13-.13.065-.387.065-.516.064-.259 0-.452 0-.71.064-.388.064-.84.064-1.227.065-.517-.129-.969-.064-1.485.064-.258-.065-.646-.065-.968 0-.84.13-1.743.065-2.647-.065-.646-.194-1.291-.13-1.937.065-.71.065-1.42.13-2.066 0-.387-.065-.71-.13-1.033 0-.194.065-.387.13-.645.129-.259 0-.581 0-.904v-2.066c0-.387-.13-.775-.13-1.162.065-.388.065-.775.065-1.227.065-.452 0-.968-.064-1.42 0-.13-.065-.194 0-.323.064-.064.064-.129.064-.194-.194-.451-.129-.839-.064-1.29.064-.13-.065-.259-.065-.388-.13-.581 0-1.162-.065-1.743-.064-.258-.064-.581-.064-.84-.065-.322 0-.71-.065-.968-.064-.452.065-.968 0-1.42-.064-.13 0-.323 0-.452.065-.581.065-1.162.065-1.743 0-.387-.065-.71-.065-1.098-.064-.516-.129-1.032-.129-1.614 0-.451.13-1.032 0-1.42s0-.774-.193-1.162v-.194c.193-.064.193-.129.064-.258-.129-.064.065-.193.13-.193s.128-.065.193-.065c-.065-.065-.13-.065-.13-.065-.322-.064-.451-.193-.322-.516.13-.258.065-.516 0-.71-.13-.323-.194-.517-.13-.84s-.064-.71 0-1.032c.13-.517 0-1.033.065-1.55 0-.129.13-.323.065-.516-.065-.065 0-.065.13-.065 0 0 .128 0 .128-.064s-.064-.194-.129-.194c-.194.065-.129-.065-.129-.13 0-.257 0-.516.194-.774.064-.129.193-.323-.065-.452-.064 0 .065-.064.065-.129.129-.129.322-.323.129-.58-.065-.065 0-.195.064-.324.259-.258 0-.645.065-.903 0-.13.064-.194.129-.323s.258-.194.258-.388c0-.064.065-.129.194-.129.065.065 0 .13 0 .194-.065.258 0 .581.065.84.064.193-.065.387-.13.58-.064.13-.193.065-.258.065s-.129 0-.129.064.065.065.065.065c.387 0 .645.129.839.452s.904.452 1.226.258c.13-.065.194-.13.259-.194.193-.064.322-.064.387.13.258.387.646.58 1.162.516.387-.065.71-.13 1.098.065.129 0 .322-.065.452 0h.064c-.194.129-.064.129.065.193.064.065.193.065.193-.064s.13-.194.194-.13c.13.259.258.13.387.13.323 0 .646 0 .904.322 0 .065.065.065.13 0 .128-.258.257-.129.387 0 .064.065.064.259.258 0 0-.064.258-.064.387 0 .258.065.517.13.775.259.194.064.323-.065.516 0 .259.129.194.193.065.322 0 0-.065.065-.13.065-.193.13-.193.194 0 .387.582.581 1.098 1.227 1.421 2.002l.065.064c-.13.388.193.646.322.969.065.064.323.322-.129.258-.129 0-.064.194 0 .258.388.517.775 1.098 1.098 1.743.129.13.129.323.258.517.065.129.13.193.194.258.387.323.71.645 1.033 1.097.258.452.58.904.839 1.291.516.84 1.097 1.614 1.678 2.325.581.645.969 1.355 1.42 2.065.453.646.84 1.292 1.227 1.937.323.581.71 1.098 1.098 1.614 0 .065.064.065.064.13.13.322.388.645.581.903.581.84 1.033 1.743 1.55 2.582l.775 1.163c.451.516.774 1.097 1.097 1.678l.775 1.162c.258.517.58 1.033.904 1.485.064.064.064.194.193.194s.065-.13.065-.259c.129-.258.129-.58.129-.903 0-.969-.13-1.937-.13-2.97 0-.84-.064-1.679.065-2.582.065-.582-.129-1.227-.064-1.808.064-.517 0-1.098.064-1.614.13-.71.065-1.42-.064-2.066-.065-.516 0-.968 0-1.42-.065-.775-.065-1.614.193-2.389.13-.194 0-.516 0-.775s0-.452.194-.645c.13-.194.194-.388.065-.581-.065-.065-.259-.388.129-.323.129 0 .129-.065.064-.13-.064-.193-.064-.322.065-.386.064-.065.064-.13.064-.194v-.194c.065-.193.194-.775.065-.904-.065-.193 0-.258.065-.322 0-.065.064-.13.064-.194-.129-.452.065-.84.065-1.291s0-.904-.065-1.356c0-.516 0-1.033.065-1.55 0-.129.064-.258.129-.322.258-.258.193-.517-.13-.646-.193-.064-.258-.129-.193-.323.065-.322 0-.774.387-1.032.065-.065.065-.13.194-.13.517.065.968-.258 1.485-.129.194.065.452.065.452-.258s.258-.387.516-.258c.194.129.452.193.71.193.775 0 1.55-.064 2.26.259.13.064.194-.065.258-.13s.13-.129.258 0c.065.065.13.13.13-.064 0-.065.193-.065.193 0 .065.258.323.258.452.258.194.065.258.13.387.259.13.193-.064.193-.129.322.194 0 .259.13.065.259-.13.129-.323.258-.452.322-.323.13-.452.323-.452.646q-.097 1.646 0 3.292c.065.259-.064.517-.064.775 0 .84.064 1.614.129 2.389 0 .064.064.129 0 .258-.13.13-.13.13 0 .323.064.129-.065.258-.13.387.194.065.259.194.13.387v.065c-.388.194-.13.516-.065.71.194.258.065.258-.129.258-.13.065-.13.065-.065.194.065.065.194.258 0 .387-.064 0 .065.194.194.259.194.064.13.258.258.452 0 0 0 .129-.064.129-.323.129-.194.258-.065.452.065.064.065.193 0 .258s-.064.129-.129.129-.064-.13-.064-.13c0-.128-.065-.193-.065-.257-.065-.065-.065-.194-.13-.13-.128.065-.064.13 0 .194v.065c-.257.387.065.323.26.387s.257.258.257.452v1.55c0 .258-.193.516-.129.774.065.581.13 1.162.13 1.679-.065 1.162.128 2.26.064 3.357a23 23 0 0 0 0 2.97c.129 1.355.129 2.775.258 4.196.13.774-.064 1.614-.064 2.388 0 .71-.065 1.42-.13 2.13v.323c-.258.84-.193 1.679-.193 2.518v.13c-.13 1.355.129 2.71.064 4.067-.064.774 0 1.614-.258 2.388-.064.194-.129.323-.323.388a6 6 0 0 1-.645.387c-.194.064-.323.258-.581 0-.065-.13-.388 0-.581.064-.194 0-.388.13-.517-.193-.064-.065-.129 0-.129.064 0 .13-.129.194-.194.13-.322-.194-.58.129-.839.129-.58 0-1.097.129-1.614.129-.71-.065-1.42-.13-2.066-.452-.258-.13-.516-.13-.839-.258-.13-.065-.258-.065-.194-.259 0-.129-.193-.129-.258-.064q-.194.097-.387 0v-.13c.129-.064.258-.128.452-.128.064.064.129.064.193.064.13.13.194.065.259-.064.129-.194.064-.259-.065-.323-.065-.065-.13-.065-.194-.13-.064 0-.193 0-.193-.193.064-.13.129-.258.322-.258.388-.065.388-.13.194-.452-.516-.969-1.097-1.937-1.872-2.712-.516-.516-.775-1.162-1.033-1.743-.13-.322-.194-.71-.516-.968 0 0-.065-.13-.065-.194-.194-.645-.581-1.226-.968-1.743s-.84-.968-1.162-1.55c-.323-.645-.84-1.226-1.098-1.936-.064-.194-.194-.323-.323-.516-.516-.904-1.226-1.744-2.001-2.518-.323-.323-.581-.71-.84-1.098-.387-.71-.774-1.42-1.226-2.13-.452-.84-.84-1.614-1.485-2.324-.71-.84-1.42-1.743-2.066-2.712a15 15 0 0 1-1.097-1.678c-.13-.258-.065-.517-.194-.775 0-.064 0-.129-.064-.194-.13-.064-.065-.129 0-.193.064 0 .193-.065.129-.13l-.13-.129c-.128-.064-.064.065-.128.13-.065.129-.065.064-.13 0-.129-.13-.193-.323-.258-.452-.129-.388-.452-.646-.58-.969-.065-.064-.065-.129-.13-.129-.129 0-.064.13-.129.194-.194.452-.194.968-.323 1.485-.129.58 0 1.097.13 1.678s.258 1.162.064 1.743c0 .13.129.194.129.323 0 .387.13.84 0 1.227-.065.129.065.258.065.387-.065.775-.13 1.55-.13 2.324v1.679c-.064.645-.129 1.226-.129 1.872s.065 1.227.13 1.872c0 1.227 0 2.518-.065 3.744-.065.904 0 1.808-.065 2.647 0 .646.065 1.292 0 1.937-.064 1.356-.193 2.712-.064 4.132 0 .064.064.129 0 .194-.194.064-.13.193-.13.322.065.13.259.13.323.065.323-.13.323 0 .194.258s-.194.517-.452.71a.5.5 0 0 0-.258.258c-.323.582-.968.71-1.55.84-.451.064-.903.193-1.42.193-.258 0-.516.13-.774.13m-.904-22.66c.064 0 .129-.194.193-.259a.14.14 0 0 0-.129-.129q-.193 0-.193.194c0 .064 0 .258.129.194m1.29-.969c.13-.064.195-.129.065-.258-.064-.065-.258-.065-.129-.194 0-.129-.322-.323-.452-.323-.064.065-.193.065-.193.13-.065.129.129.064.193.129 0 0 .259-.065 0 .129-.064.064.13.193.194.258.13.13.194.194.323.13m-.581-.905c0 .13.194.065.194-.064.064-.065.064-.13.129-.13.258.065.193-.064.129-.193 0-.065 0-.13-.065-.194.065-.064.13-.193 0-.193-.129-.065-.129.129-.129.193 0 .194-.129.323-.129.517-.065.064-.258-.065-.13.064m.388-16.85c.065 0 .065-.064.065-.193-.13-.13-.065-.452-.388-.517-.193 0-.193.065-.258.13-.064.129.13.129.13.258.193-.065.258.064.322.258.065.065.065.065.13.065m-1.421-3.228c-.13-.13-.194-.259-.258-.323 0-.13 0-.194.064-.258 0-.065.065 0 .065-.065 0 .258.193.387.193.581zm-2.324-2.583c-.258-.064-.194-.258-.258-.387 0-.065 0-.194.129-.13.129 0 .258.13.258.324.065.064 0 .193-.13.193" fill="#111"/></svg>